<?xml version="1.0" encoding="utf-8"?>
<svg version="1.1" id="Layer_1"
xmlns="http://www.w3.org/2000/svg"
xmlns:xlink="http://www.w3.org/1999/xlink"
width="210px" height="413px"
xml:space="preserve">
<g id="PathID_2" transform="matrix(1, 0, 0, 1, 104.6, 206.1)">
<path style="fill:#B1AAB0;fill-opacity:1" d="M17 -160.85Q11.7 -162.3 6.65 -162.15L6.65 -164.3Q4.1 -170.05 1.45 -174.7L1.3 -174.9L-2 -180.15Q-8.55 -189.55 -15.7 -192.8Q-10.2 -198.2 -4.65 -201.65Q2.35 -206 6.6 -205.55Q8.9 -205.35 13.05 -201.45Q17.9 -196.95 21.65 -190.55Q32 -172.7 27.05 -152.1Q27.45 -158.05 17 -160.85" />
<path style="fill:#A04A16;fill-opacity:1" d="M-6.95 -158.9Q-8.6 -161.3 -11.2 -162.85Q-11.05 -159.1 -12.6 -155.55Q-16.2 -153.1 -19.65 -149.65L-19.8 -149.5Q-24.15 -145.25 -28.7 -139.35Q-30.95 -146.25 -34.15 -149.3L-35.9 -150.7Q-33.1 -163.85 -29.05 -173.3L-28.9 -173.65Q-25 -182.65 -20 -188.3L-15.7 -192.8Q-8.55 -189.55 -2 -180.15L1.3 -174.9L1.45 -174.7Q4.1 -170.05 6.65 -164.3L6.65 -162.15L5.25 -162.1Q3.15 -164.75 3.15 -165.35Q2.6 -163.6 2.65 -161.85Q-2.25 -161.15 -6.95 -158.9M-8.05 -171.5L-8.8 -173.3L-9.6 -175.15L-8.8 -173.3L-8.05 -171.5M-16.05 -168.75L-17.6 -172.85L-15.6 -173.55L-19.65 -172.2L-22.65 -170.75L-22.15 -169.2L-19.45 -169.95L-18.7 -168.15L-21.95 -166.8L-18.7 -168.15L-19.45 -169.95L-22.15 -169.2L-22.65 -170.75L-17.6 -172.85L-16.05 -168.75M-2 -172.8L-5.5 -171.75L-6.95 -175.85L-5.5 -171.75L-2 -172.8M-10.8 -170.55L-11.45 -172.45L-8.8 -173.3L-11.45 -172.45L-10.8 -170.55M-12.7 -169.85L-14.2 -173.9L-12.7 -169.85M-11.45 -172.45L-12.2 -174.45L-11.45 -172.45M-26.7 76.15L-26.75 76.15Q-27.3 75.45 -28.1 75.15L-31.4 74.7L-31.5 74.7L-31.65 74.7L-32.7 74.75Q-34.4 68.45 -39.95 67.25Q-34.4 68.45 -32.7 74.75Q-36.25 75 -41.45 76.5Q-45.55 77.65 -48.05 78.7Q-45.35 74.2 -43.35 68.65Q-43.15 68 -39.95 67.25L-35.45 66.3L-31.75 65.7L-29.05 65.25Q-24.35 66.05 -22.6 71.5L-22.65 71.6Q-24.75 74.75 -26.7 76.15" />
<path style="fill:#938892;fill-opacity:1" d="M8.05 -155.65Q10.15 -154.55 12.5 -153.95Q11.1 -155.2 7.35 -159.6L5.25 -162.1L6.65 -162.15Q11.7 -162.3 17 -160.85Q27.45 -158.05 27.05 -152.1Q26.9 -150.6 26.1 -148.9Q24.75 -145.95 21.5 -142.85Q18.9 -140.4 16.75 -139.2L15.9 -138.85L9.9 -151.9L8.05 -155.65" />
<path style="fill:#000000;fill-opacity:1" d="M7.35 -159.6Q11.1 -155.2 12.5 -153.95Q10.15 -154.55 8.05 -155.65Q5.4 -156.95 3.15 -159Q2.7 -160.4 2.65 -161.85Q2.6 -163.6 3.15 -165.35Q3.15 -164.75 5.25 -162.1L7.35 -159.6M1.9 -144.9Q2.5 -145 3.05 -144.3Q3.6 -143.6 3.8 -142.45Q4.1 -140.45 3.4 -139.75L2.85 -139.45Q2.15 -139.4 1.7 -140Q1.2 -140.65 0.95 -141.95Q0.75 -143.1 1 -143.95Q1.25 -144.85 1.9 -144.9M-4.85 -154.15Q-7.85 -151.55 -12.15 -149.9Q-14.95 -148.85 -18.35 -148.2Q-14.4 -151.7 -12.6 -155.55Q-11.05 -159.1 -11.2 -162.85Q-8.6 -161.3 -6.95 -158.9Q-5.6 -156.85 -4.85 -154.15M-9.2 -140.95Q-8.7 -138.25 -10.05 -138Q-10.8 -137.85 -11.25 -138.45Q-11.75 -139.1 -12 -140.45Q-12.2 -141.55 -11.95 -142.45Q-11.7 -143.3 -11.05 -143.4Q-10.45 -143.55 -9.9 -142.75Q-9.35 -142.05 -9.2 -140.95" />
<path style="fill:#FFCC99;fill-opacity:1" d="M-28.7 -139.35Q-24.15 -145.25 -19.8 -149.5L-19.65 -149.65Q-16.2 -153.1 -12.6 -155.55Q-14.4 -151.7 -18.35 -148.2Q-14.95 -148.85 -12.15 -149.9Q-7.85 -151.55 -4.85 -154.15Q-5.6 -156.85 -6.95 -158.9Q-2.25 -161.15 2.65 -161.85Q2.7 -160.4 3.15 -159Q5.4 -156.95 8.05 -155.65L9.9 -151.9L15.9 -138.85Q20 -129.2 22.55 -120.85Q26.15 -109.15 26.75 -99.9Q27.25 -90.95 24.85 -85.35Q23.5 -82.2 21.45 -80.4L21.35 -80.35L18.95 -78.85Q9.6 -75.05 4.9 -80.5Q3.6 -77.7 2.9 -74.45Q-6.7 -70.75 -23.35 -75Q-29.65 -76.65 -35.35 -79Q-40.45 -81.15 -42.5 -82.7L-43.2 -83.35Q-47.5 -87.45 -48.5 -98.35L-48.2 -100L-47.4 -100L-46.7 -100.05L-46.65 -100.05Q-41.4 -98.35 -36.7 -103.3Q-32.25 -108 -29.15 -116.25Q-25.4 -126.55 -27.4 -134.8L-28.7 -139.35M4.7 -138.55L4.85 -138.75L4.95 -138.9Q6.45 -141.1 5.95 -145.3Q5.6 -147.9 4.7 -149.35Q3.8 -150.85 2.4 -151.25Q0.2 -151.9 -0.75 -150.35Q-1.7 -148.9 -1.4 -145.3L-1.35 -144.9Q-1.05 -143.9 0.25 -141.85L1.6 -139.95L3.25 -137.75L3.45 -137.5Q3.75 -137.4 4.7 -138.55M3.45 -137.5L3.45 -137.45Q5.8 -134.45 9.3 -130.35Q11.8 -127.35 14.15 -121.1L15.05 -118.5Q16.15 -115.1 15.75 -114.5Q14.95 -113.15 12.15 -112.65L10 -112.45L5.9 -112.95L5.2 -113.1Q3.3 -113.45 3.3 -112.05Q3.3 -111 5.9 -112.95L10 -112.45L12.15 -112.65Q14.95 -113.15 15.75 -114.5Q16.15 -115.1 15.05 -118.5L14.15 -121.1Q11.8 -127.35 9.3 -130.35Q5.8 -134.45 3.45 -137.45L3.45 -137.5L3.25 -137.75M7.4 -96.7Q13.45 -97.25 13.2 -107.1L6.6 -104.35Q-0.55 -103.3 -7.5 -106.25L-9.4 -109.55Q-0.85 -95.95 7.4 -96.7M-9.4 -109.55L-9.8 -110.25L-9.8 -110.2L-9.85 -110.2Q-12.5 -109.1 -14.55 -110.45Q-12.5 -109.1 -9.85 -110.2L-9.8 -110.2L-9.8 -110.25L-9.4 -109.55L-7.5 -106.25M-6.65 -141.15L-7 -143.25Q-8.25 -148.8 -11.45 -148.15Q-13 -147.75 -13.75 -145.85Q-14.45 -143.9 -13.9 -141.5Q-13.4 -139.25 -12 -137.8L-11.9 -137.7Q-10.35 -136.3 -8.75 -136.65Q-7.3 -137.05 -6.8 -139Q-6.6 -139.95 -6.65 -141.15M-6.6 -112.4Q-8.3 -110.95 -9.75 -110.25L-9.8 -110.25L-9.75 -110.25Q-8.3 -110.95 -6.6 -112.4" />
<path style="fill:#E9E9E9;fill-opacity:1" d="M3.25 -137.75L1.6 -139.95L0.25 -141.85Q-1.05 -143.9 -1.35 -144.9L-1.4 -145.3Q-1.7 -148.9 -0.75 -150.35Q0.2 -151.9 2.4 -151.25Q3.8 -150.85 4.7 -149.35Q5.6 -147.9 5.95 -145.3Q6.45 -141.1 4.95 -138.9L4.85 -138.75L4.7 -138.55Q3.75 -137.4 3.25 -137.75M1 -143.95Q0.75 -143.1 0.95 -141.95Q1.2 -140.65 1.7 -140Q2.15 -139.4 2.85 -139.45L3.4 -139.75Q4.1 -140.45 3.8 -142.45Q3.6 -143.6 3.05 -144.3Q2.5 -145 1.9 -144.9Q1.25 -144.85 1 -143.95M-9.9 -142.75Q-10.45 -143.55 -11.05 -143.4Q-11.7 -143.3 -11.95 -142.45Q-12.2 -141.55 -12 -140.45Q-11.75 -139.1 -11.25 -138.45Q-10.8 -137.85 -10.05 -138Q-8.7 -138.25 -9.2 -140.95Q-9.35 -142.05 -9.9 -142.75M-6.8 -139Q-7.3 -137.05 -8.75 -136.65Q-10.35 -136.3 -11.9 -137.7L-12 -137.8Q-13.4 -139.25 -13.9 -141.5Q-14.45 -143.9 -13.75 -145.85Q-13 -147.75 -11.45 -148.15Q-8.25 -148.8 -7 -143.25L-6.65 -141.15Q-6.6 -139.95 -6.8 -139" />
<path style="fill:#660000;fill-opacity:1" d="M-7.5 -106.25Q-0.55 -103.3 6.6 -104.35L13.2 -107.1Q13.45 -97.25 7.4 -96.7Q-0.85 -95.95 -7.5 -106.25" />
<path style="fill:#E4DFDB;fill-opacity:1" d="M71.65 -33.75Q66.9 -36.25 66.55 -39.85Q66.4 -41.4 68 -44.1Q69.65 -46.85 71.65 -48.4L66.85 -58.2Q63.3 -65.8 63.8 -68.8Q64.15 -71.3 66.85 -74.5Q69.35 -77.45 69.4 -79.05Q69.35 -81.55 66.6 -86.75Q63.75 -92 61.95 -92.85Q61 -93.3 61.9 -95.05Q62.8 -96.95 64.85 -98.35Q70.4 -102.3 75.9 -97.5Q83.9 -90.6 81.9 -86.35L82.65 -86.65L84.45 -87.25L91.05 -88.85Q94.4 -89.25 96.65 -88.05Q102 -85.15 103.9 -70.8Q105.1 -61.35 100.15 -53.8L96.6 -49Q95 -46.7 95.1 -45.2L97.6 -40.5Q99.95 -36.35 99.85 -33.45Q99.7 -30.95 94.95 -29.9L94.55 -29.85L94.5 -29.85Q88.85 -28.75 80.05 -30.85Q74.85 -32.05 71.65 -33.75M-65.4 87.8Q-71.6 91.4 -79.75 89.95L-83.15 89.15Q-84.6 88.6 -86.05 87.1Q-87.95 85.15 -89.8 81.75Q-92.2 77.35 -93.2 73.85Q-94.1 71.1 -85.2 50.7Q-84.65 49.45 -83.6 48.55L-83.6 48.5Q-87.3 43.3 -85.35 32.25L-81.45 32.85Q-71.65 33.75 -56.45 29.2L-54.75 28.65L-54.7 29.2Q-54.1 37.75 -57.9 42.05L-58.05 42.05Q-59.25 41.85 -60.2 42.7Q-59.25 41.85 -58.05 42.05L-57.9 42.05Q-54.65 42.75 -48.8 51.75Q-48.55 57.95 -47.85 61.35Q-47.35 63.95 -51.95 72.1L-55.65 78Q-59 82.75 -62.6 85.8L-65.4 87.8M81.9 -86.35L81.55 -86.25Q77.7 -84.6 76.7 -82.35Q76 -80.9 75.85 -78.25L75.7 -72.15Q75.5 -62.45 82.65 -58.5L83 -58.3L82.65 -58.5Q75.5 -62.45 75.7 -72.15L75.85 -78.25Q76 -80.9 76.7 -82.35Q77.7 -84.6 81.55 -86.25L81.9 -86.35M71.65 -48.4Q72.65 -45.75 79.85 -44.4Q86.65 -43.1 89.9 -44.35Q86.65 -43.1 79.85 -44.4Q72.65 -45.75 71.65 -48.4M-60.95 57.35L-64.9 58.75L-66.85 53.5L-64.9 58.75L-60.95 57.35M-67.75 59.55L-68.8 56.9L-69.75 54.5L-68.8 56.9L-67.75 59.55M-73.15 61.55L-75.05 56.2L-73.15 61.55M-68.8 56.9L-71.8 58.1L-72.75 55.45L-71.8 58.1L-68.8 56.9M-76.35 57.4L-79.95 59.05L-76.35 57.4M-83.6 66L-79.9 64.05L-80.85 61.7L-83.9 62.85L-84.6 60.8L-81.2 58.7L-84.6 60.8L-83.9 62.85L-80.85 61.7L-79.9 64.05L-83.6 66M-76.85 63.15L-78.2 58.85L-76.85 63.15M-70.85 60.9L-71.8 58.1L-70.85 60.9M-83.6 48.5Q-80.8 46.05 -74.55 45.9Q-80.8 46.05 -83.6 48.5" />
<path style="fill:#E16C29;fill-opacity:1" d="M18.95 -78.85L21.35 -80.35L21.45 -80.4L21.65 -79.8L21.7 -79.75L18.95 -78.85M39.65 -45.05L39.6 -45.1Q42.45 -37.85 44.1 -31.7Q45.25 -27.45 45.8 -23.65L47.7 -11.5L48.9 -3.85Q47.1 -2.2 44.1 -1.05L41.55 -0.25Q41.8 -3.6 41.15 -8.65L40.9 -9L43.85 -11.65L40.9 -9Q36.4 -5.6 28.95 -2.95L28.9 -2.9L28.85 -3.2L28.5 -3.1L27 -2.8Q26.8 -2.65 26.6 -2.65Q26.15 -2.65 26 -3L25.95 -3.1L25.9 -3.4L25.95 -3.55L26.1 -3.8L26.05 -3.85Q25.95 -4.15 26 -4.55L26.15 -6.45L26 -7.45L26.1 -7.65L25.7 -7.95L25.7 -8.05L25.65 -8.35Q24.7 -19.5 23.1 -27.8L23.05 -28.05L23.2 -28.3L23.1 -28.7L23.15 -28.85L22.7 -29.35L22.6 -29.75L22.6 -31.2L21.7 -33.6L21.85 -34.45L21.5 -35.75Q21.1 -36.65 21.1 -37.25L21.15 -37.45L20.55 -37.95L20.5 -38.2Q18.15 -46.4 17.4 -51.15Q17.05 -53.3 17 -54.75Q25.25 -57.5 23.9 -61.6L24.05 -62.45L24.3 -62.4Q31.05 -57.1 35.65 -51.15Q37.9 -48.2 39.65 -45.05L44.1 -41.1Q55.75 -30.4 62.2 -20.25Q56.6 -22.95 47.7 -11.5L45.8 -23.65Q45.25 -27.45 44.1 -31.7Q42.45 -37.85 39.6 -45.1L39.65 -45.05M50.4 41.1L45.05 42.4Q45.25 38.35 44.95 33.55Q48.6 33.85 51.9 30Q51.8 36.3 51.5 39.45L51.9 40.05L50.4 41.1M-19.95 9.45Q-38.6 6.5 -46.5 -1.35L-46.8 -5.1L-42.65 -10.7Q-38.55 -16.75 -36.15 -18.9L-33.3 -20.6L-36.15 -18.9Q-38.55 -16.75 -42.65 -10.7L-46.8 -5.1L-48.45 -3.25Q-48.6 -5.65 -51.15 -8.7Q-53.55 -11.55 -57.35 -14.1Q-61.25 -16.8 -64.8 -17.9L-70.95 -18.1Q-66.25 -25 -60.75 -34.95Q-57.95 -40.1 -53.6 -51.15L-51.6 -56.4L-48.5 -63.65Q-46.05 -68.75 -43.95 -70.45L-43.25 -71.2Q-38.75 -66.95 -33.9 -63.65Q-16.95 -52.1 3.7 -52.3L4 -51.15L4.25 -50.3L6.45 -43.6Q9.5 -34.2 11.15 -20.8Q12.4 -10.6 13.15 -0.5Q-7.95 1.5 -19.3 -1.95Q-18.65 5.35 -19.95 9.45M-46.2 -153.05L-45.7 -152.95Q-41.25 -152.25 -38 -148.9L-36.5 -147.1Q-33.95 -143.55 -32.75 -138.6Q-31.8 -134.55 -31.8 -129.6Q-31.8 -119.65 -37.05 -109.85Q-41.85 -100.95 -46.65 -100.05L-46.7 -100.05L-47.4 -100L-48.2 -100Q-52.85 -100.4 -58.05 -107.6Q-63.5 -115.1 -65.25 -123.3Q-67.25 -132.75 -64.35 -141.15L-64.25 -141.45Q-70.45 -159.6 -57.15 -175.2Q-60.8 -165.3 -58 -150.35Q-62.15 -147.45 -64.25 -141.45Q-62.15 -147.45 -58 -150.35Q-55.25 -152.35 -51.55 -152.9L-50.2 -153.1L-46.2 -153.05M-36.8 -151.2Q-40.45 -153.2 -45.7 -153.05L-45.75 -153.05L-45.75 -153.15Q-53.55 -177.8 -39.95 -187.8L-39.15 -188.35L-38.05 -189.15L-37 -189.85L-36.7 -190.05Q-25.6 -197.35 -15.7 -192.8L-20 -188.3Q-25 -182.65 -28.9 -173.65L-29.05 -173.3Q-33.1 -163.85 -35.9 -150.7L-36.8 -151.2M-26.35 -5.25Q-23.5 -3.2 -19.3 -1.95Q-23.5 -3.2 -26.35 -5.25M-1.75 -34.15Q-1.95 -31.15 -4.4 -27.2L-5.8 -25.2L-12.85 -25.5Q-16.15 -28.75 -18.85 -34.55L-18.9 -34.9Q-11.3 -36.05 -4.2 -34.65Q-11.3 -36.05 -18.9 -34.9L-18.85 -34.55Q-16.15 -28.75 -12.85 -25.5L-5.8 -25.2L-4.4 -27.2Q-1.95 -31.15 -1.75 -34.15M-2.95 -26.15L-3 -25.05Q-3.5 -16.8 -2.45 -8.75L-18.7 -9.3Q-17.7 -23.65 -18.85 -34.55Q-17.7 -23.65 -18.7 -9.3L-2.45 -8.75Q-3.5 -16.8 -3 -25.05L-2.95 -26.15M-31.05 46.25Q-30.1 53.5 -30.7 60.25Q-33.35 61.6 -36.2 62.05Q-39.05 62.5 -42.1 62.1Q-41.75 56.65 -43.2 48.5L-37.05 46.75L-31.05 46.25M-46.5 41Q-47.45 36.8 -47.4 31.1L-47.35 28.15L-46.05 29.45Q-38.35 36.65 -23.5 38.7L-32.9 39.85L-46.2 42.45L-46.5 41M-29.05 65.25L-20.8 64.25L-19.65 64.35Q-18.75 64.8 -21.5 69.65L-22 70.55L-22.6 71.5Q-24.35 66.05 -29.05 65.25M13.85 49.55L13.95 49.65L14.1 49.8L13.8 54.6L13.7 55.55L12.55 56.3Q10.3 57.2 7.2 55.1Q6.55 59.3 3.85 60.6Q1.3 61.8 -2 60.15Q-3.9 64.75 -6.4 66.6Q-8.9 68.45 -12.05 67.55Q-13 70.25 -14.5 71.65Q-16 73 -18 73.05L-18.2 72.75Q-17.1 71.5 -14.6 66.65L-14.45 66.35L-14.45 66.3Q-12 61.55 -11.5 59.5Q-10.8 56.65 -11.7 50.2Q2.2 54.25 13.85 49.55M-18.35 45.1Q-16.1 51.2 -16.85 58.75Q-18.9 59.65 -21.1 59.9Q-23.3 60.2 -25.65 59.85Q-25 52.85 -26.05 45.9Q-22.65 44.85 -18.35 45.1M14.1 49.55L14.1 49.45L14.3 49.65L14.1 49.8L14.1 49.55" />
<path style="fill:#24332E;fill-opacity:1" d="M14.45 54.75L13.7 55.55L13.8 54.6L14.45 54.75" />
<path style="fill:#333333;fill-opacity:1" d="M50.4 41.1L51.9 40.05L52 40L52.85 39.25Q53.95 40.1 55.2 40.35L50.4 41.1M73.1 76.45L74.95 74.55L75.4 74.05L76.3 73L78.1 70.4L79.5 67.75Q80.5 65.5 80.85 63.25L80.9 63.25L80.95 62.9L80.95 62.8L80.95 62.7L81.1 61.25L81.1 60.55Q81.05 56.6 79.6 52.9Q77.55 47.7 73.85 44.65Q67.9 39.65 57.75 40.15Q59.6 39.5 61.6 37.55Q67.5 41.35 72.8 36.9Q73.55 40.25 75.85 41.85Q78.05 43.4 81.8 43.2Q79.95 49.5 87.05 51.1Q81 56.05 86 64.75Q77.65 64.65 81.15 73.3Q77.3 72.7 75.75 74.4Q74.15 76 74.8 79.9Q70.8 78.75 68.85 80Q66.85 81.25 66.9 84.85L61.8 84.55L65.7 82.15L68.85 79.95L72.85 76.65L73.1 76.45M39.3 96.5L39.3 97.1Q34.75 94.45 32.7 99.85Q30.15 98.1 27.6 98.3L41.55 93.65L44.1 92.7L49.9 90.35L51.1 89.85L52.45 89.25L52.8 89.1L54.65 88.25L59.55 85.8Q58.1 87.2 57.7 89.95Q54.45 88.6 52.55 89.4Q50.6 90.2 50.05 93.2L44.1 93Q43.45 93.25 42.85 93.65Q41.05 94.9 40.15 97.65L39.3 97.1L39.3 96.5M-3.55 106.2L10.65 102.9L12.2 102.5L24.3 99.25L24.65 99.15Q22.5 100.25 20.35 102.85Q14.2 100.15 12.3 106L11.7 105.7L11.55 105.65Q5.65 103.1 2.8 107.95Q-2.2 105.15 -6.4 109.9L-8.1 109.25L-8.2 109.2Q-12.65 108 -15.15 111.85Q-16.4 111.1 -17.45 110.85L-17.6 110.85Q-20.2 110.3 -21.7 112.95Q-23.7 110.65 -26.6 110.75L-3.55 106.2M-82.55 118.8L-82.55 118.75L-85.3 102.95L-86.5 95.8L-86.75 93.65Q-87 91.15 -86.85 89.55Q-87 91.15 -86.75 93.65L-86.5 95.8L-85.3 102.95Q-88 104.1 -92.45 113.1Q-96.95 122.15 -96.2 124.1L-96.1 124.4Q-95.7 125.85 -94.65 130.85Q-93.8 134.75 -92.85 134.9Q-91.2 135.1 -82.5 131.3L-82.45 131.4Q-80.95 135.45 -79.55 137.8L-80.15 138.1Q-95.7 143.5 -97.9 142.55Q-99.35 141.95 -101.5 135.05L-104.05 125.95L-104 124.4Q-103.25 120.6 -98.35 108.75Q-93.95 98 -91.85 93.65L-91 92Q-89.7 89.6 -86.85 89.55L-86.7 88.4Q-86.5 87.5 -86.05 87.1Q-84.6 88.6 -83.15 89.15L-79.75 89.95L-79.65 93.65Q-79.3 97.75 -77.75 102.6L-78.85 105.45Q-80.95 112.3 -82.2 118.7L-82.2 118.8L-82.35 119.7L-82.55 118.8M25.05 50.1L26.85 48.3L28.25 45.9Q31.1 46.8 33.45 46.4Q29.4 48.05 25.05 50.1M44.1 42.65Q40.35 43.7 36.3 45.3Q38.2 44.05 39.7 41.65L44.1 42.4L44.85 42.45L44.1 42.65M-37.05 46.75L-43.2 48.5Q-41.75 56.65 -42.1 62.1Q-39.05 62.5 -36.2 62.05Q-33.35 61.6 -30.7 60.25Q-30.1 53.5 -31.05 46.25L-37.05 46.75M-16.1 39.35Q-13.15 41.2 -11.8 49.35L-11.7 50.2Q-10.8 56.65 -11.5 59.5Q-12 61.55 -14.45 66.3L-14.45 66.35L-14.6 66.65Q-17.1 71.5 -18.2 72.75L-18 73.05Q-16 73 -14.5 71.65L-18.15 73.05L-18.2 73.05Q-20 73 -22.15 72L-22.65 71.6L-22.6 71.5L-22 70.55L-21.5 69.65Q-18.75 64.8 -19.65 64.35L-20.8 64.25L-29.05 65.25L-31.75 65.7L-35.45 66.3L-39.95 67.25Q-43.15 68 -43.35 68.65Q-45.35 74.2 -48.05 78.7Q-50.75 79.8 -51.6 80.75L-51.95 81.7Q-53.3 81.25 -57.05 83.05Q-59.65 84.25 -62.35 86.1L-62.4 86.1L-62.6 85.8Q-59 82.75 -55.65 78L-51.95 72.1Q-47.35 63.95 -47.85 61.35Q-48.55 57.95 -48.8 51.75L-48.85 51.2L-48.85 50.9Q-49.2 43.25 -47.85 42.85L-46.2 42.45L-32.9 39.85L-23.5 38.7Q-17.85 38.3 -16.1 39.35M-14.5 71.65Q-13 70.25 -12.05 67.55Q-8.9 68.45 -6.4 66.6Q-3.9 64.75 -2 60.15Q1.3 61.8 3.85 60.6Q6.55 59.3 7.2 55.1Q10.3 57.2 12.55 56.3L13.7 55.55L14.45 54.75L14.65 54.45L14.7 54.4L14.75 54.35L16.05 51.55Q19.4 52.25 22.05 51.6L21 52.1L17.5 53.9L14.8 55.3L14.75 55.35L12.65 56.5Q12.15 56.7 11.75 57L7.45 59.4L7.1 59.6L4.5 61.1L4.25 61.25L2.3 62.45L-3.55 66L-5.55 67.25L-5.85 67.45L-5.9 67.45L-10.1 70.15L-12.8 71.9L-13.85 72.6L-16.95 74.65L-17.1 74.75L-24.35 79.7L-24.7 79.95L-25 80.1L-28.2 82.35L-33.85 86.35L-35.15 87.3Q-31 81.9 -31.55 77.65Q-28.3 79.25 -26.1 78.55L-25.8 78.4L-25.75 78.4L-25.35 78.2Q-23 76.8 -22.15 72Q-20 73 -18.2 73.05L-18.15 73.05L-18 73.05M-26.05 45.9Q-25 52.85 -25.65 59.85Q-23.3 60.2 -21.1 59.9Q-18.9 59.65 -16.85 58.75Q-16.1 51.2 -18.35 45.1Q-22.65 44.85 -26.05 45.9" />
<path style="fill:#E5E5E5;fill-opacity:1" d="M75.85 59.75Q70.15 58.2 64.2 58.2L63.7 57.95Q61.85 57.25 59.85 57.25L59.05 57.25L58.55 57.1L56.95 56.75L51.55 56L50.85 55.8L44.1 54.4L36.55 53.6Q34.55 53.55 32.6 52.9L28.3 51.7L23.6 50.85L22.95 51.15L25.05 50.1Q29.4 48.05 33.45 46.4L36.3 45.3Q40.35 43.7 44.1 42.65L44.85 42.45Q47.95 42.4 50.4 41.1L55.2 40.35L57.75 40.15Q67.9 39.65 73.85 44.65Q77.55 47.7 79.6 52.9Q81.05 56.6 81.1 60.55L75.85 59.75M54.65 88.25L55.25 87.95L48.05 86.75L46.5 86.35Q45.3 85.85 44.1 85.5L42.3 85L35.95 82.95L34.55 82.35Q32.3 81.3 29.9 80.95L36.45 78.5L36.3 77.65L38.7 78.15L44.1 79.35L53 80.9L64.55 82.85L65.7 82.15L61.8 84.55L59.55 85.8L54.65 88.25M-3.25 80.1L-3.15 81.9L1.65 80.5L2.2 89.45L4.25 88.8L3.6 80.1L5.35 79L6.8 79.45L10.05 80.45L10.75 86.7L12.45 86.35L11.6 80.95L16.25 82.15L16.7 85.75L18.3 85.25L17.95 80.7Q19.45 82.85 20.8 83.15L22.35 83.55L22.5 84.45L24.1 84.15Q27.1 85.25 30.25 85.8L41.1 87.9L44.1 88.6L47.05 89.35L48.65 89.9L49.9 90.35L44.1 92.7L41.55 93.65L27.6 98.3L24.95 99.05L15.95 96.6L12.4 95.7L5.05 93.65L1.15 92.2L-2.85 90.65L-3 85.25L-9.5 87.65L-10.2 86.25L-4.9 82.15L-5.2 80.75L-12.75 85.1L-12.5 87.8L-12.8 87.7L-15.6 86.8Q-19.7 85.05 -24.05 84.15Q-24.8 84 -25.4 83.65L-28.2 82.35L-25 80.1L-24.7 79.95L-24.35 79.7L-17.1 74.75L-16.95 74.65L-13.85 72.6Q-14.9 73.85 -14.15 74.1Q-7.45 76.4 -0.45 77.65L2.2 78.2L-3.25 80.1M21.2 77.05L18 78.3L18.45 78.1L18.25 78.05L17.65 77.9L16.75 73.05L15.25 73.65L15.7 77.45L11.8 76.45L10.9 76.25L10.7 75.1L9.45 75.65L9.5 75.9L6.5 75.25Q2.95 74.55 -0.4 73.35L-1.8 73Q-3.2 72.8 -4.35 72.05Q-5.4 71.35 -6.55 71.1L-10.1 70.15L-5.9 67.45L-6.25 67.7Q-3.3 68.95 -0.05 69.1L0.85 69.2L11.1 71.85L16.4 73.15L16.75 73.05L16.8 73.25L21.2 74.25L21.2 77.05M21.7 54.35L25.45 55.05L28.75 55.7L30.7 56.15Q34.95 57.7 39.7 57.2L40.2 57.4L44.1 57.8L49.75 58.5L51.55 58.6L59.05 59.8L66.5 61.15L69.75 61.75L71.35 62L72.35 62.05L80.85 63.25Q80.5 65.5 79.5 67.75L78.15 67.4L75.95 67.1L68.9 66.45L66.35 66.2L62.65 65.8L58.85 65.25L44.15 63.1L44.1 63.1L40.4 62.4L27.7 59.85L20.05 58.5L15.55 57.45L12.35 56.65L11.75 57Q12.15 56.7 12.65 56.5L14.75 55.35L14.8 55.3L17.5 53.9L21.7 54.35M27.15 80.4L26.3 80.15L23.65 79.4L23 74.65L25.5 75.15L26.6 75.45L27.15 80.4M28.9 76.35L29.9 76.55L33.7 77.15L29.25 78.85L28.9 76.35M72.85 76.65L72.6 76.6L71.4 76.35L73.1 76.45L72.85 76.65M-26.6 110.75L-26.8 110.75L-32.3 95.25Q-25.45 97.35 -18.7 99.75Q-15.05 101.05 -11.6 102.85Q-7.7 104.9 -3.55 106.2L-26.6 110.75M-7.95 89L-5.45 88.1L-5.35 89.8L-7.95 89M21.6 79L21.45 79L21.65 78.9L21.65 79L21.6 79" />
<path style="fill:#999999;fill-opacity:1" d="M-2.8 91.35L-2.8 92.85L-11.75 95.85L-11.75 94.6L-5.2 92.1L-5.35 89.8L-5.45 88.1L-7.95 89L-12.25 90.5L-12.5 87.8L-12.75 85.1L-5.2 80.75L-4.9 82.15L-10.2 86.25L-9.5 87.65L-3 85.25L-2.85 90.65L-2.8 91.35M23.65 79.4L24.25 84.1L24.1 84.15L22.5 84.45L22.35 83.55L22.3 83.1L22.3 83L21.65 79L21.65 78.9L21.45 79L17.95 80.65L17.95 80.7L18.3 85.25L16.7 85.75L16.25 82.15L15.95 79.4L15.9 79.25L15.7 77.45L15.25 73.65L16.75 73.05L17.65 77.9L17.75 78.4L18 78.3L21.2 77.05L21.2 74.25L21.2 71.65L22.55 71.2L22.55 71.25L23 74.65L23.65 79.4M9.5 75.9L9.45 75.65L10.7 75.1L10.9 76.25L11.6 80.95L12.45 86.35L10.75 86.7L10.05 80.45L9.5 75.9M6.3 76.75L7.5 76.3L7.95 77.4L7.5 77.7L7.2 77.9L7.15 77.95L5.35 79L3.6 80.1L4.25 88.8L2.2 89.45L1.65 80.5L-3.15 81.9L-3.25 80.1L2.2 78.2L5.85 76.9L6.3 76.75M36.45 78.5L29.9 80.95L27.3 81.9L27.15 80.4L26.6 75.45L26.05 70.5L27.9 69.75L28.9 76.35L29.25 78.85L33.7 77.15L34.15 77L36.05 76.25L36.3 77.65L36.45 78.5" />
<path style="fill:#666666;fill-opacity:1" d="M-46.2 -153.05L-48 -153.2Q-52.8 -170.9 -48.35 -180.25Q-45.6 -186.05 -39.3 -188.65L-39.15 -188.35L-39.95 -187.8Q-53.55 -177.8 -45.75 -153.15L-46.2 -153.05" />
<path style="fill:#E7EBE9;fill-opacity:1" d="M-46.75 89.2L-44.85 93.65Q-42.95 98.3 -41.1 104.2Q-38.35 112.8 -37.05 119.55Q-36.5 122.45 -36.3 124.4Q-36.1 127.35 -36.65 128.2L-36.75 128.3Q-37.45 129 -40.35 130.25L-40.4 130.25Q-45.25 132.3 -56.35 135.75Q-74.5 141.35 -76.6 140.85Q-77.95 140.55 -79.55 137.8Q-80.95 135.45 -82.45 131.4L-82.5 131.3L-82.95 130.05Q-83.55 128.35 -83.1 124.4L-82.35 119.7L-82.2 118.8L-82.2 118.7Q-80.95 112.3 -78.85 105.45L-77.75 102.6L-76.55 100.2L-74.25 96.8L-71.5 93.65Q-68.8 90.85 -65.2 88.1L-62.4 86.1L-62.35 86.1Q-59.65 84.25 -57.05 83.05Q-53.3 81.25 -51.95 81.7Q-49.95 82.35 -46.75 89.2M-59.55 100.25L-60.5 98.2L-61.4 96.3L-60.5 98.2L-59.55 100.25M-48.25 117Q-47.9 119.5 -50 120.75Q-52.2 122.05 -54.2 119.8L-54.95 118.8Q-55.75 117.2 -54.8 115.3Q-53.7 112.9 -51.8 113.05Q-53.7 112.9 -54.8 115.3Q-55.75 117.2 -54.95 118.8L-54.2 119.8Q-52.2 122.05 -50 120.75Q-47.9 119.5 -48.25 117M-63.75 97.2L-62.85 99.3L-61.95 101.45L-62.85 99.3L-63.75 97.2M-66.6 103.7L-68.05 99.9L-66.55 99L-68.05 99.9L-66.6 103.7M-71.8 106.25L-68.9 104.55L-69.85 102.7L-72.2 103.8L-72.85 102.2L-70.3 100.35L-72.85 102.2L-72.2 103.8L-69.85 102.7L-68.9 104.55L-71.8 106.25M-68.05 99.9L-69.25 100.55L-68.05 99.9M-60.9 122.2Q-60.35 123.4 -61.65 124.4L-64.45 124.45L-64.55 124.4Q-65.85 123.4 -65.4 121.6Q-64.9 119.75 -63.35 119.65Q-64.9 119.75 -65.4 121.6Q-65.85 123.4 -64.55 124.4L-64.45 124.45L-61.65 124.4Q-60.35 123.4 -60.9 122.2M-62.85 99.3L-60.5 98.2L-62.85 99.3M-54.25 98.1L-57.35 99.45L-59.1 95.4L-57.35 99.45L-54.25 98.1M-63.7 102.2L-65.45 98.2L-63.7 102.2" />
<path style="fill:#C1C8C5;fill-opacity:1" d="M-26.8 110.75L-26.6 110.75Q-23.7 110.65 -21.7 112.95Q-20.2 110.3 -17.6 110.85L-17.55 110.85L-17.65 111.6Q-16.35 115.45 -17.8 117.95Q-19.7 120.95 -26.6 124.4L-28.1 125.15Q-35.1 128.45 -36.7 128.3L-36.75 128.3L-36.65 128.2Q-36.1 127.35 -36.3 124.4Q-36.5 122.45 -37.05 119.55Q-38.35 112.8 -41.1 104.2Q-42.95 98.3 -44.85 93.65L-46.75 89.2Q-49.95 82.35 -51.95 81.7L-51.6 80.75Q-50.75 79.8 -48.05 78.7Q-45.55 77.65 -41.45 76.5Q-36.25 75 -32.7 74.75L-31.65 74.7L-31.5 74.7L-31.4 74.7L-28.1 75.15Q-27.3 75.45 -26.75 76.15L-26.7 76.15L-26.35 76.7Q-26 77.35 -25.8 78.3L-25.8 78.4L-26.1 78.55Q-28.3 79.25 -31.55 77.65Q-31 81.9 -35.15 87.3L-35 87.65L-34.75 88.3L-32.3 95.25L-26.8 110.75" />
<path style="fill:#FFFFFF;fill-opacity:1" d="M10.05 80.45L6.8 79.45L5.35 79L7.15 77.95L7.2 77.9L7.5 77.7L7.95 77.4L7.5 76.3L6.3 76.75L5.85 76.9L2.2 78.2L-0.45 77.65Q-7.45 76.4 -14.15 74.1Q-14.9 73.85 -13.85 72.6L-12.8 71.9L-10.1 70.15L-6.55 71.1Q-5.4 71.35 -4.35 72.05Q-3.2 72.8 -1.8 73L-0.4 73.35Q2.95 74.55 6.5 75.25L9.5 75.9L10.05 80.45M24.25 84.1L23.65 79.4L26.3 80.15L27.15 80.4L27.3 81.9L29.9 80.95Q32.3 81.3 34.55 82.35L35.95 82.95L42.3 85L44.1 85.5Q45.3 85.85 46.5 86.35L48.05 86.75L55.25 87.95L54.65 88.25L52.8 89.1L52.45 89.25L51.1 89.85L49.9 90.35L48.65 89.9L47.05 89.35L44.1 88.6L41.1 87.9L30.25 85.8Q27.1 85.25 24.1 84.15L24.25 84.1M21.65 79L22.3 83L22.3 83.1L22.35 83.55L20.8 83.15Q19.45 82.85 17.95 80.7L17.95 80.65L21.45 79L21.6 79L21.65 79M10.9 76.25L11.8 76.45L15.7 77.45L15.9 79.25L15.95 79.4L16.25 82.15L11.6 80.95L10.9 76.25M6.3 76.75L5.85 76.9L6.3 76.75M12.35 56.65L15.55 57.45L20.05 58.5L27.7 59.85L40.4 62.4L44.1 63.1L44.15 63.1L58.85 65.25L62.65 65.8L66.35 66.2L68.9 66.45L75.95 67.1L78.15 67.4L79.5 67.75L78.1 70.4L76.3 73L75.4 74.05L74.95 74.55L73.1 76.45L71.4 76.35L72.6 76.6L72.85 76.65L68.85 79.95L65.7 82.15L64.55 82.85L53 80.9L44.1 79.35L38.7 78.15L36.3 77.65L36.05 76.25L34.15 77L33.7 77.15L29.9 76.55L28.9 76.35L27.9 69.75L26.05 70.5L26.6 75.45L25.5 75.15L23 74.65L22.55 71.25L22.55 71.2L21.2 71.65L21.2 74.25L16.8 73.25L16.75 73.05L16.4 73.15L11.1 71.85L0.85 69.2L-0.05 69.1Q-3.3 68.95 -6.25 67.7L-5.9 67.45L-5.85 67.45L-5.55 67.25L-3.55 66L2.3 62.45L4.25 61.25L4.5 61.1L7.1 59.6L7.45 59.4L11.75 57L12.35 56.65M22.95 51.15L23.6 50.85L28.3 51.7L32.6 52.9Q34.55 53.55 36.55 53.6L44.1 54.4L50.85 55.8L51.55 56L56.95 56.75L58.55 57.1L59.05 57.25L59.85 57.25Q61.85 57.25 63.7 57.95L64.2 58.2Q70.15 58.2 75.85 59.75L81.1 60.55L81.1 61.25L80.95 62.7L80.95 62.8L80.95 62.9L80.9 63.25L80.85 63.25L72.35 62.05L71.35 62L69.75 61.75L66.5 61.15L59.05 59.8L51.55 58.6L49.75 58.5L44.1 57.8L40.2 57.4L39.7 57.2Q34.95 57.7 30.7 56.15L28.75 55.7L25.45 55.05L21.7 54.35L17.5 53.9L21 52.1L22.05 51.6L22.25 51.45L22.95 51.15M34.15 77L33.7 77.15L34.15 77M17.75 78.4L17.65 77.9L18.25 78.05L18.45 78.1L18 78.3L17.75 78.4M80.85 63.25L80.95 62.9L80.85 63.25" />
<path style="fill:#CCCCCC;fill-opacity:1" d="M-5.35 89.8L-5.2 92.1L-11.75 94.6L-11.75 95.85L-2.8 92.85L-2.8 91.35L-2.85 90.65L1.15 92.2L5.05 93.65L12.4 95.7L15.95 96.6L24.95 99.05L24.65 99.15L24.3 99.25L12.2 102.5L10.65 102.9L-3.55 106.2Q-7.7 104.9 -11.6 102.85Q-15.05 101.05 -18.7 99.75Q-25.45 97.35 -32.3 95.25L-34.75 88.3L-35 87.65L-35.15 87.3L-33.85 86.35L-28.2 82.35L-25.4 83.65Q-24.8 84 -24.05 84.15Q-19.7 85.05 -15.6 86.8L-12.8 87.7L-12.5 87.8L-12.25 90.5L-7.95 89L-5.35 89.8" />
<path style="fill:#0F1110;fill-opacity:1" d="M37.8 158.8Q52.6 158.1 68.3 164.55Q73.4 166.65 77.9 169.2Q81.3 171.2 81.7 171.7Q82.2 172.4 82.65 174.65Q83.15 177.15 82.6 178.45Q81.25 181.75 76.45 182.7Q51.75 183.95 36.85 179.5L34.3 180.3L27.4 179.35Q22.65 178.25 20.65 176.55Q17.1 173.55 19.2 162.65Q30.9 163.9 37.8 158.8M-17.75 167.5Q-17.1 169 -17.15 172.35Q-17.15 175.8 -17.95 177.3Q-19.15 179.35 -24.15 180.7L-28.45 188.5Q-30.65 192.45 -39 198.95Q-46.8 204.95 -49.15 205.45Q-51.55 205.95 -56.25 204.65Q-61.35 203.25 -61.5 201.35Q-61.85 195.7 -53.65 181.75Q-46.8 170.2 -38.4 168.75L-37.4 168.6Q-23.9 173.65 -17.75 167.5" />
<path style="fill:#404040;fill-opacity:1" d="M13.95 49.65L13.85 49.55Q2.2 54.25 -11.7 50.2L-11.8 49.35Q-13.15 41.2 -16.1 39.35Q-17.85 38.3 -23.5 38.7Q-38.35 36.65 -46.05 29.45L-47.35 28.15L-47.35 27.9L-46.85 20.15Q-46 7.5 -46.5 -1.35Q-38.6 6.5 -19.95 9.45Q-18.65 5.35 -19.3 -1.95Q-7.95 1.5 13.15 -0.5Q12.4 -10.6 11.15 -20.8Q9.5 -34.2 6.45 -43.6L4.25 -50.3L4 -51.15L3.7 -52.3Q-16.95 -52.1 -33.9 -63.65Q-38.75 -66.95 -43.25 -71.2L-43.55 -71.45Q-44.3 -73.4 -44.3 -77.4Q-44.3 -81.35 -43.2 -83.35L-42.5 -82.7Q-40.45 -81.15 -35.35 -79Q-29.65 -76.65 -23.35 -75Q-6.7 -70.75 2.9 -74.45Q3.6 -77.7 4.9 -80.5Q9.6 -75.05 18.95 -78.85L21.7 -79.75Q23.05 -75.8 23.75 -69.85Q24.25 -65.9 24.15 -63.65L24.05 -62.5L24.05 -62.45L23.9 -61.6Q25.25 -57.5 17 -54.75Q17.05 -53.3 17.4 -51.15Q18.15 -46.4 20.5 -38.2L20.55 -37.95L21.15 -37.45L21.1 -37.25Q21.1 -36.65 21.5 -35.75L21.85 -34.45L21.7 -33.6L22.6 -31.2L22.6 -29.75L22.7 -29.35L23.15 -28.85L23.1 -28.7L23.2 -28.3L23.05 -28.05L23.1 -27.8Q24.7 -19.5 25.65 -8.35L25.7 -8.05L25.7 -7.95L26.1 -7.65L26 -7.45L26.15 -6.45L26 -4.55Q25.95 -4.15 26.05 -3.85L26.1 -3.8L25.95 -3.55L25.9 -3.4L25.95 -3.1L26 -3Q26.15 -2.65 26.6 -2.65Q26.8 -2.65 27 -2.8L28.5 -3.1L28.85 -3.2L28.9 -2.9L28.95 -2.95Q36.4 -5.6 40.9 -9L41.15 -8.65Q41.8 -3.6 41.55 -0.25L44.1 -1.05Q47.1 -2.2 48.9 -3.85L47.7 -11.5Q56.6 -22.95 62.2 -20.25L65.9 -13.65L68.7 -22.55Q71.2 -30.2 71.65 -33.75Q74.85 -32.05 80.05 -30.85Q88.85 -28.75 94.5 -29.85Q93.05 -24.55 92 -17.35L90.4 -4.8Q88.45 10.3 85 16Q83.35 18.7 75.25 20.4Q67.8 21.9 65.05 21.05Q62.1 20.05 50.8 8.75Q51.95 17.05 51.95 23.65L51.9 30Q48.6 33.85 44.95 33.55Q45.25 38.35 45.05 42.4L44.85 42.45L44.1 42.4L39.7 41.65Q38.2 44.05 36.3 45.3L33.45 46.4Q31.1 46.8 28.25 45.9L26.85 48.3L26.95 34.15L26.95 33.75L27 24.05L27 23.3Q26.85 12.35 26.35 3L26 -2.05L28.9 -2.9L26 -2.05L26.35 3Q26.85 12.35 27 23.3L27 24.05L26.95 33.75L26.95 34.15L26.85 48.3L25.05 50.1L22.95 51.15L22.25 51.45L22.05 51.6Q19.4 52.25 16.05 51.55L14.75 54.35L14.7 54.4L14.65 54.45L14.45 54.75L13.8 54.6L14.1 49.8L14.3 49.65L14.1 49.45Q14.6 28.5 13.9 12.5L13.15 -0.5L13.9 12.5Q14.6 28.5 14.1 49.45L13.95 49.65M11.7 105.7L12.3 106Q14.2 100.15 20.35 102.85Q22.5 100.25 24.65 99.15L24.95 99.05L27.6 98.3Q30.15 98.1 32.7 99.85Q34.75 94.45 39.3 97.1L38.95 115.95L38.8 124.4Q38.35 144 37.7 151.15L37.65 151.45L37.75 151.4L38.55 151.15Q38.8 156.4 37.8 158.8Q30.9 163.9 19.2 162.65L18.6 162.6Q17.3 160.6 16.8 157.95Q16.3 155.3 16.9 153.6L17.55 153.7L17.6 153.7L17.7 153.05Q17.5 149.95 14.9 134.05L13.4 124.4Q12.05 114.45 11.55 106.05L11.55 105.65L11.7 105.7M-37.4 168.6L-38.55 168.1Q-41.05 164.15 -39.85 160.65L-37.6 161.05L-37.7 160.35Q-39.85 146.35 -40.4 130.25L-40.35 130.25Q-37.45 129 -36.75 128.3L-36.7 128.3Q-35.1 128.45 -28.1 125.15L-26.6 124.4Q-19.7 120.95 -17.8 117.95Q-16.35 115.45 -17.65 111.6L-17.55 110.85L-17.45 110.85Q-16.4 111.1 -15.15 111.85Q-12.65 108 -8.2 109.2L-8.15 109.25L-8.15 109.75Q-8.75 117.55 -9.9 124.4Q-10.85 130.15 -12.2 135.25Q-15.1 146.05 -16.9 159.4L-17 159.95L-15.75 159.55Q-15.55 163.25 -16.85 166.45L-17.75 167.5Q-23.9 173.65 -37.4 168.6M-54.3 0.2Q-53.8 -3.15 -57 -6.2Q-53.8 -3.15 -54.3 0.2Q-54.55 1.6 -55.8 3.2Q-57.35 -1 -61.65 -2.5Q-57.35 -1 -55.8 3.2L-55.55 4.05Q-55.05 5.85 -55.85 11.4L-57.4 20.1Q-58.1 24.75 -56.45 29.2Q-71.65 33.75 -81.45 32.85Q-80.15 22.35 -79.6 12.45L-79.35 -1.15Q-79.1 -7.8 -77.35 -9.8Q-74.35 -13.2 -70.95 -18.1L-64.8 -17.9Q-61.25 -16.8 -57.35 -14.1Q-53.55 -11.55 -51.15 -8.7Q-48.6 -5.65 -48.45 -3.25Q-52 0.45 -54.3 0.2M-50.2 -153.1L-51.55 -152.9Q-55.25 -152.35 -58 -150.35Q-60.8 -165.3 -57.15 -175.2Q-55.7 -179.1 -53.3 -182.2Q-46.2 -191.25 -37 -189.85L-38.05 -189.15L-39.3 -188.65Q-45.6 -186.05 -48.35 -180.25Q-52.8 -170.9 -48 -153.2L-50.2 -153.1M2.9 -74.45Q1.8 -69.5 2.1 -63.65Q2.2 -61.1 2.6 -58.3Q3 -55.2 3.7 -52.3Q3 -55.2 2.6 -58.3Q2.2 -61.1 2.1 -63.65Q1.8 -69.5 2.9 -74.45M23.1 -27.8L22.7 -29.35L23.1 -27.8M22.6 -29.75L20.5 -38.2L22.6 -29.75M25.95 -3.1L26 -2.05L25.95 -3.1M25.7 -7.95L25.95 -3.55L25.7 -7.95M60.6 -5.1Q61.3 -8.15 65.4 -11.1Q64.95 -6.9 66.2 -1.55Q64.95 -6.9 65.4 -11.1Q61.3 -8.15 60.6 -5.1M65.9 -13.65L65.6 -12.55L65.4 -11.3L65.4 -11.1L65.4 -11.3L65.6 -12.55L65.9 -13.65M-27.4 -134.8Q-25.4 -126.55 -29.15 -116.25Q-32.25 -108 -36.7 -103.3Q-41.4 -98.35 -46.65 -100.05Q-41.85 -100.95 -37.05 -109.85Q-31.8 -119.65 -31.8 -129.6Q-31.8 -134.55 -32.75 -138.6Q-33.95 -143.55 -36.5 -147.1L-38 -148.9Q-41.25 -152.25 -45.7 -152.95L-45.75 -153.05L-45.7 -153.05Q-40.45 -153.2 -36.8 -151.2L-35.9 -150.7L-34.15 -149.3Q-30.95 -146.25 -28.7 -139.35L-27.4 -134.8M-37.6 161.05Q-26.65 162.7 -17.15 160L-17 159.95L-17.15 160Q-26.65 162.7 -37.6 161.05M50.8 8.75L50.65 7.55L48.9 -3.85L50.65 7.55L50.8 8.75M17.6 153.7Q23.1 154.65 28.1 153.9Q31.25 153.45 37.55 151.5L37.65 151.45L37.55 151.5Q31.25 153.45 28.1 153.9Q23.1 154.65 17.6 153.7" />
<path style="fill:none;stroke-width:1;stroke-linecap:round;stroke-linejoin:round;stroke-miterlimit:3;stroke:#666666;stroke-opacity:1" d="M-15.7 -192.8Q-10.2 -198.2 -4.65 -201.65Q2.35 -206 6.6 -205.55Q8.9 -205.35 13.05 -201.45Q17.9 -196.95 21.65 -190.55Q32 -172.7 27.05 -152.1Q26.9 -150.6 26.1 -148.9Q24.75 -145.95 21.5 -142.85Q18.9 -140.4 16.75 -139.2" />
<path style="fill:none;stroke-width:1;stroke-linecap:round;stroke-linejoin:round;stroke-miterlimit:3;stroke:#666666;stroke-opacity:1" d="M15.9 -138.85Q20 -129.2 22.55 -120.85Q26.15 -109.15 26.75 -99.9Q27.25 -90.95 24.85 -85.35Q23.5 -82.2 21.45 -80.4L21.65 -79.8L21.7 -79.75Q23.05 -75.8 23.75 -69.85Q24.25 -65.9 24.15 -63.65L24.05 -62.5L24.3 -62.4Q31.05 -57.1 35.65 -51.15Q37.9 -48.2 39.65 -45.05L44.1 -41.1Q55.75 -30.4 62.2 -20.25L65.9 -13.65L68.7 -22.55Q71.2 -30.2 71.65 -33.75Q66.9 -36.25 66.55 -39.85Q66.4 -41.4 68 -44.1Q69.65 -46.85 71.65 -48.4L66.85 -58.2Q63.3 -65.8 63.8 -68.8Q64.15 -71.3 66.85 -74.5Q69.35 -77.45 69.4 -79.05Q69.35 -81.55 66.6 -86.75Q63.75 -92 61.95 -92.85Q61 -93.3 61.9 -95.05Q62.8 -96.95 64.85 -98.35Q70.4 -102.3 75.9 -97.5Q83.9 -90.6 81.9 -86.35L82.65 -86.65L84.45 -87.25L91.05 -88.85Q94.4 -89.25 96.65 -88.05Q102 -85.15 103.9 -70.8Q105.1 -61.35 100.15 -53.8L96.6 -49Q95 -46.7 95.1 -45.2L97.6 -40.5Q99.95 -36.35 99.85 -33.45Q99.7 -30.95 94.95 -29.9L94.55 -29.85L94.5 -29.85Q93.05 -24.55 92 -17.35L90.4 -4.8Q88.45 10.3 85 16Q83.35 18.7 75.25 20.4Q67.8 21.9 65.05 21.05Q62.1 20.05 50.8 8.75Q51.95 17.05 51.95 23.65L51.9 30Q51.8 36.3 51.5 39.45" />
<path style="fill:none;stroke-width:1;stroke-linecap:round;stroke-linejoin:round;stroke-miterlimit:3;stroke:#666666;stroke-opacity:1" d="M51.9 40.05L52 40L52.85 39.25Q53.95 40.1 55.2 40.35L57.75 40.15Q59.6 39.5 61.6 37.55Q67.5 41.35 72.8 36.9Q73.55 40.25 75.85 41.85Q78.05 43.4 81.8 43.2Q79.95 49.5 87.05 51.1Q81 56.05 86 64.75Q77.65 64.65 81.15 73.3Q77.3 72.7 75.75 74.4Q74.15 76 74.8 79.9Q70.8 78.75 68.85 80Q66.85 81.25 66.9 84.85L61.8 84.55L59.55 85.8Q58.1 87.2 57.7 89.95Q54.45 88.6 52.55 89.4Q50.6 90.2 50.05 93.2L44.1 93Q43.45 93.25 42.85 93.65Q41.05 94.9 40.15 97.65L39.3 97.1L38.95 115.95L38.8 124.4Q38.35 144 37.7 151.15L37.65 151.45L37.75 151.4L38.55 151.15Q38.8 156.4 37.8 158.8Q52.6 158.1 68.3 164.55Q73.4 166.65 77.9 169.2Q81.3 171.2 81.7 171.7Q82.2 172.4 82.65 174.65Q83.15 177.15 82.6 178.45Q81.25 181.75 76.45 182.7Q51.75 183.95 36.85 179.5L34.3 180.3L27.4 179.35Q22.65 178.25 20.65 176.55Q17.1 173.55 19.2 162.65L18.6 162.6Q17.3 160.6 16.8 157.95Q16.3 155.3 16.9 153.6L17.55 153.7L17.6 153.7" />
<path style="fill:none;stroke-width:1;stroke-linecap:round;stroke-linejoin:round;stroke-miterlimit:3;stroke:#666666;stroke-opacity:1" d="M17.7 153.05Q17.5 149.95 14.9 134.05L13.4 124.4Q12.05 114.45 11.55 106.05L11.55 105.65Q5.65 103.1 2.8 107.95Q-2.2 105.15 -6.4 109.9L-8.1 109.25L-8.15 109.25L-8.15 109.75Q-8.75 117.55 -9.9 124.4Q-10.85 130.15 -12.2 135.25Q-15.1 146.05 -16.9 159.4L-17 159.95L-15.75 159.55Q-15.55 163.25 -16.85 166.45L-17.75 167.5Q-17.1 169 -17.15 172.35Q-17.15 175.8 -17.95 177.3Q-19.15 179.35 -24.15 180.7L-28.45 188.5Q-30.65 192.45 -39 198.95Q-46.8 204.95 -49.15 205.45Q-51.55 205.95 -56.25 204.65Q-61.35 203.25 -61.5 201.35Q-61.85 195.7 -53.65 181.75Q-46.8 170.2 -38.4 168.75L-37.4 168.6L-38.55 168.1Q-41.05 164.15 -39.85 160.65L-37.6 161.05L-37.7 160.35Q-39.85 146.35 -40.4 130.25Q-45.25 132.3 -56.35 135.75Q-74.5 141.35 -76.6 140.85Q-77.95 140.55 -79.55 137.8" />
<path style="fill:none;stroke-width:1;stroke-linecap:round;stroke-linejoin:round;stroke-miterlimit:3;stroke:#666666;stroke-opacity:1" d="M-80.15 138.1Q-95.7 143.5 -97.9 142.55Q-99.35 141.95 -101.5 135.05L-104.05 125.95L-104 124.4Q-103.25 120.6 -98.35 108.75Q-93.95 98 -91.85 93.65L-91 92Q-89.7 89.6 -86.85 89.55L-86.7 88.4Q-86.5 87.5 -86.05 87.1Q-87.95 85.15 -89.8 81.75Q-92.2 77.35 -93.2 73.85Q-94.1 71.1 -85.2 50.7Q-84.65 49.45 -83.6 48.55L-83.6 48.5Q-87.3 43.3 -85.35 32.25L-81.45 32.85Q-80.15 22.35 -79.6 12.45L-79.35 -1.15Q-79.1 -7.8 -77.35 -9.8Q-74.35 -13.2 -70.95 -18.1Q-66.25 -25 -60.75 -34.95Q-57.95 -40.1 -53.6 -51.15L-51.6 -56.4L-48.5 -63.65Q-46.05 -68.75 -43.95 -70.45" />
<path style="fill:none;stroke-width:1;stroke-linecap:round;stroke-linejoin:round;stroke-miterlimit:3;stroke:#666666;stroke-opacity:1" d="M-43.25 -71.2L-43.55 -71.45Q-44.3 -73.4 -44.3 -77.4Q-44.3 -81.35 -43.2 -83.35Q-47.5 -87.45 -48.5 -98.35" />
<path style="fill:none;stroke-width:1;stroke-linecap:round;stroke-linejoin:round;stroke-miterlimit:3;stroke:#666666;stroke-opacity:1" d="M-48.2 -100Q-52.85 -100.4 -58.05 -107.6Q-63.5 -115.1 -65.25 -123.3Q-67.25 -132.75 -64.35 -141.15L-64.25 -141.45Q-70.45 -159.6 -57.15 -175.2Q-55.7 -179.1 -53.3 -182.2Q-46.2 -191.25 -37 -189.85L-36.7 -190.05Q-25.6 -197.35 -15.7 -192.8Q-8.55 -189.55 -2 -180.15L1.3 -174.9L1.45 -174.7Q4.1 -170.05 6.65 -164.3L6.65 -162.15Q11.7 -162.3 17 -160.85Q27.45 -158.05 27.05 -152.1" />
<path style="fill:none;stroke-width:1;stroke-linecap:round;stroke-linejoin:round;stroke-miterlimit:3;stroke:#666666;stroke-opacity:1" d="M5.25 -162.1Q3.15 -164.75 3.15 -165.35Q2.6 -163.6 2.65 -161.85Q2.7 -160.4 3.15 -159Q5.4 -156.95 8.05 -155.65Q10.15 -154.55 12.5 -153.95Q11.1 -155.2 7.35 -159.6L5.25 -162.1L6.65 -162.15" />
<path style="fill:none;stroke-width:1;stroke-linecap:round;stroke-linejoin:round;stroke-miterlimit:3;stroke:#666666;stroke-opacity:1" d="M3.25 -137.75L1.6 -139.95L0.25 -141.85Q-1.05 -143.9 -1.35 -144.9L-1.4 -145.3Q-1.7 -148.9 -0.75 -150.35Q0.2 -151.9 2.4 -151.25Q3.8 -150.85 4.7 -149.35Q5.6 -147.9 5.95 -145.3Q6.45 -141.1 4.95 -138.9L4.85 -138.75L4.7 -138.55Q3.75 -137.4 3.25 -137.75L3.45 -137.5L3.45 -137.45Q5.8 -134.45 9.3 -130.35Q11.8 -127.35 14.15 -121.1L15.05 -118.5Q16.15 -115.1 15.75 -114.5Q14.95 -113.15 12.15 -112.65L10 -112.45L5.9 -112.95Q3.3 -111 3.3 -112.05Q3.3 -113.45 5.2 -113.1L5.9 -112.95" />
<path style="fill:none;stroke-width:1;stroke-linecap:round;stroke-linejoin:round;stroke-miterlimit:3;stroke:#666666;stroke-opacity:1" d="M15.9 -138.85L9.9 -151.9L8.05 -155.65" />
<path style="fill:none;stroke-width:1;stroke-linecap:round;stroke-linejoin:round;stroke-miterlimit:3;stroke:#666666;stroke-opacity:1" d="M1.9 -144.9Q2.5 -145 3.05 -144.3Q3.6 -143.6 3.8 -142.45Q4.1 -140.45 3.4 -139.75L2.85 -139.45Q2.15 -139.4 1.7 -140Q1.2 -140.65 0.95 -141.95Q0.75 -143.1 1 -143.95Q1.25 -144.85 1.9 -144.9z" />
<path style="fill:none;stroke-width:1;stroke-linecap:round;stroke-linejoin:round;stroke-miterlimit:3;stroke:#666666;stroke-opacity:1" d="M-7.5 -106.25Q-0.55 -103.3 6.6 -104.35L13.2 -107.1Q13.45 -97.25 7.4 -96.7Q-0.85 -95.95 -7.5 -106.25L-9.4 -109.55L-9.8 -110.25L-9.8 -110.2L-9.85 -110.2Q-12.5 -109.1 -14.55 -110.45" />
<path style="fill:none;stroke-width:1;stroke-linecap:round;stroke-linejoin:round;stroke-miterlimit:3;stroke:#666666;stroke-opacity:1" d="M83 -58.3L82.65 -58.5Q75.5 -62.45 75.7 -72.15L75.85 -78.25Q76 -80.9 76.7 -82.35Q77.7 -84.6 81.55 -86.25L81.9 -86.35" />
<path style="fill:none;stroke-width:1;stroke-linecap:round;stroke-linejoin:round;stroke-miterlimit:3;stroke:#666666;stroke-opacity:1" d="M21.35 -80.35L21.45 -80.4" />
<path style="fill:none;stroke-width:1;stroke-linecap:round;stroke-linejoin:round;stroke-miterlimit:3;stroke:#666666;stroke-opacity:1" d="M21.35 -80.35L18.95 -78.85" />
<path style="fill:none;stroke-width:1;stroke-linecap:round;stroke-linejoin:round;stroke-miterlimit:3;stroke:#666666;stroke-opacity:1" d="M-43.2 -83.35L-42.5 -82.7Q-40.45 -81.15 -35.35 -79Q-29.65 -76.65 -23.35 -75Q-6.7 -70.75 2.9 -74.45Q3.6 -77.7 4.9 -80.5Q9.6 -75.05 18.95 -78.85" />
<path style="fill:none;stroke-width:1;stroke-linecap:round;stroke-linejoin:round;stroke-miterlimit:3;stroke:#666666;stroke-opacity:1" d="M24.05 -62.45L23.9 -61.6Q25.25 -57.5 17 -54.75Q17.05 -53.3 17.4 -51.15Q18.15 -46.4 20.5 -38.2L20.55 -37.95" />
<path style="fill:none;stroke-width:1;stroke-linecap:round;stroke-linejoin:round;stroke-miterlimit:3;stroke:#666666;stroke-opacity:1" d="M22.6 -29.75L22.7 -29.35" />
<path style="fill:none;stroke-width:1;stroke-linecap:round;stroke-linejoin:round;stroke-miterlimit:3;stroke:#666666;stroke-opacity:1" d="M23.05 -28.05L23.1 -27.8Q24.7 -19.5 25.65 -8.35L25.7 -8.05L25.7 -7.95" />
<path style="fill:none;stroke-width:1;stroke-linecap:round;stroke-linejoin:round;stroke-miterlimit:3;stroke:#666666;stroke-opacity:1" d="M28.9 -2.9L28.95 -2.95Q36.4 -5.6 40.9 -9L43.85 -11.65" />
<path style="fill:none;stroke-width:1;stroke-linecap:round;stroke-linejoin:round;stroke-miterlimit:3;stroke:#666666;stroke-opacity:1" d="M-19.3 -1.95Q-7.95 1.5 13.15 -0.5Q12.4 -10.6 11.15 -20.8Q9.5 -34.2 6.45 -43.6L4.25 -50.3L4 -51.15L3.7 -52.3Q-16.95 -52.1 -33.9 -63.65Q-38.75 -66.95 -43.25 -71.2" />
<path style="fill:none;stroke-width:1;stroke-linecap:round;stroke-linejoin:round;stroke-miterlimit:3;stroke:#666666;stroke-opacity:1" d="M3.7 -52.3Q3 -55.2 2.6 -58.3Q2.2 -61.1 2.1 -63.65Q1.8 -69.5 2.9 -74.45" />
<path style="fill:none;stroke-width:1;stroke-linecap:round;stroke-linejoin:round;stroke-miterlimit:3;stroke:#666666;stroke-opacity:1" d="M24.05 -62.5L24.05 -62.45" />
<path style="fill:none;stroke-width:1;stroke-linecap:round;stroke-linejoin:round;stroke-miterlimit:3;stroke:#666666;stroke-opacity:1" d="M47.7 -11.5L45.8 -23.65Q45.25 -27.45 44.1 -31.7Q42.45 -37.85 39.6 -45.1L39.65 -45.05" />
<path style="fill:none;stroke-width:1;stroke-linecap:round;stroke-linejoin:round;stroke-miterlimit:3;stroke:#666666;stroke-opacity:1" d="M22.7 -29.35L23.1 -27.8" />
<path style="fill:none;stroke-width:1;stroke-linecap:round;stroke-linejoin:round;stroke-miterlimit:3;stroke:#666666;stroke-opacity:1" d="M20.5 -38.2L22.6 -29.75" />
<path style="fill:none;stroke-width:1;stroke-linecap:round;stroke-linejoin:round;stroke-miterlimit:3;stroke:#666666;stroke-opacity:1" d="M28.9 -2.9L26 -2.05L26.35 3Q26.85 12.35 27 23.3L27 24.05L26.95 33.75L26.95 34.15L26.85 48.3L28.25 45.9Q31.1 46.8 33.45 46.4L36.3 45.3Q38.2 44.05 39.7 41.65L44.1 42.4L44.85 42.45L45.05 42.4Q45.25 38.35 44.95 33.55Q48.6 33.85 51.9 30" />
<path style="fill:none;stroke-width:1;stroke-linecap:round;stroke-linejoin:round;stroke-miterlimit:3;stroke:#666666;stroke-opacity:1" d="M26 -2.05L25.95 -3.1" />
<path style="fill:none;stroke-width:1;stroke-linecap:round;stroke-linejoin:round;stroke-miterlimit:3;stroke:#666666;stroke-opacity:1" d="M25.95 -3.55L25.7 -7.95" />
<path style="fill:none;stroke-width:1;stroke-linecap:round;stroke-linejoin:round;stroke-miterlimit:3;stroke:#666666;stroke-opacity:1" d="M89.9 -44.35Q86.65 -43.1 79.85 -44.4Q72.65 -45.75 71.65 -48.4" />
<path style="fill:none;stroke-width:1;stroke-linecap:round;stroke-linejoin:round;stroke-miterlimit:3;stroke:#666666;stroke-opacity:1" d="M94.5 -29.85Q88.85 -28.75 80.05 -30.85Q74.85 -32.05 71.65 -33.75" />
<path style="fill:none;stroke-width:1;stroke-linecap:round;stroke-linejoin:round;stroke-miterlimit:3;stroke:#666666;stroke-opacity:1" d="M41.15 -8.65Q41.8 -3.6 41.55 -0.25L44.1 -1.05Q47.1 -2.2 48.9 -3.85L47.7 -11.5Q56.6 -22.95 62.2 -20.25" />
<path style="fill:none;stroke-width:1;stroke-linecap:round;stroke-linejoin:round;stroke-miterlimit:3;stroke:#666666;stroke-opacity:1" d="M66.2 -1.55Q64.95 -6.9 65.4 -11.1Q61.3 -8.15 60.6 -5.1" />
<path style="fill:none;stroke-width:1;stroke-linecap:round;stroke-linejoin:round;stroke-miterlimit:3;stroke:#666666;stroke-opacity:1" d="M65.4 -11.1L65.4 -11.3L65.6 -12.55L65.9 -13.65" />
<path style="fill:none;stroke-width:1;stroke-linecap:round;stroke-linejoin:round;stroke-miterlimit:3;stroke:#666666;stroke-opacity:1" d="M-35.9 -150.7Q-33.1 -163.85 -29.05 -173.3L-28.9 -173.65Q-25 -182.65 -20 -188.3L-15.7 -192.8" />
<path style="fill:none;stroke-width:1;stroke-linecap:round;stroke-linejoin:round;stroke-miterlimit:3;stroke:#666666;stroke-opacity:1" d="M-9.6 -175.15L-8.8 -173.3L-8.05 -171.5" />
<path style="fill:none;stroke-width:1;stroke-linecap:round;stroke-linejoin:round;stroke-miterlimit:3;stroke:#666666;stroke-opacity:1" d="M-45.75 -153.15Q-53.55 -177.8 -39.95 -187.8L-39.15 -188.35" />
<path style="fill:none;stroke-width:1;stroke-linecap:round;stroke-linejoin:round;stroke-miterlimit:3;stroke:#666666;stroke-opacity:1" d="M-39.3 -188.65Q-45.6 -186.05 -48.35 -180.25Q-52.8 -170.9 -48 -153.2L-46.2 -153.05" />
<path style="fill:none;stroke-width:1;stroke-linecap:round;stroke-linejoin:round;stroke-miterlimit:3;stroke:#666666;stroke-opacity:1" d="M-45.75 -153.15L-45.75 -153.05L-45.7 -153.05Q-40.45 -153.2 -36.8 -151.2L-35.9 -150.7L-34.15 -149.3Q-30.95 -146.25 -28.7 -139.35Q-24.15 -145.25 -19.8 -149.5L-19.65 -149.65Q-16.2 -153.1 -12.6 -155.55Q-11.05 -159.1 -11.2 -162.85Q-8.6 -161.3 -6.95 -158.9Q-2.25 -161.15 2.65 -161.85" />
<path style="fill:none;stroke-width:1;stroke-linecap:round;stroke-linejoin:round;stroke-miterlimit:3;stroke:#666666;stroke-opacity:1" d="M-39.15 -188.35L-38.05 -189.15L-39.3 -188.65" />
<path style="fill:none;stroke-width:1;stroke-linecap:round;stroke-linejoin:round;stroke-miterlimit:3;stroke:#666666;stroke-opacity:1" d="M-38.05 -189.15L-37 -189.85" />
<path style="fill:none;stroke-width:1;stroke-linecap:round;stroke-linejoin:round;stroke-miterlimit:3;stroke:#666666;stroke-opacity:1" d="M-22.65 -170.75L-22.15 -169.2L-19.45 -169.95L-18.7 -168.15L-21.95 -166.8" />
<path style="fill:none;stroke-width:1;stroke-linecap:round;stroke-linejoin:round;stroke-miterlimit:3;stroke:#666666;stroke-opacity:1" d="M-6.95 -175.85L-5.5 -171.75L-2 -172.8" />
<path style="fill:none;stroke-width:1;stroke-linecap:round;stroke-linejoin:round;stroke-miterlimit:3;stroke:#666666;stroke-opacity:1" d="M-17.6 -172.85L-16.05 -168.75" />
<path style="fill:none;stroke-width:1;stroke-linecap:round;stroke-linejoin:round;stroke-miterlimit:3;stroke:#666666;stroke-opacity:1" d="M-8.8 -173.3L-11.45 -172.45L-10.8 -170.55" />
<path style="fill:none;stroke-width:1;stroke-linecap:round;stroke-linejoin:round;stroke-miterlimit:3;stroke:#666666;stroke-opacity:1" d="M-12.6 -155.55Q-14.4 -151.7 -18.35 -148.2Q-14.95 -148.85 -12.15 -149.9Q-7.85 -151.55 -4.85 -154.15Q-5.6 -156.85 -6.95 -158.9" />
<path style="fill:none;stroke-width:1;stroke-linecap:round;stroke-linejoin:round;stroke-miterlimit:3;stroke:#666666;stroke-opacity:1" d="M-17.6 -172.85L-15.6 -173.55L-19.65 -172.2L-22.65 -170.75" />
<path style="fill:none;stroke-width:1;stroke-linecap:round;stroke-linejoin:round;stroke-miterlimit:3;stroke:#666666;stroke-opacity:1" d="M-14.2 -173.9L-12.7 -169.85" />
<path style="fill:none;stroke-width:1;stroke-linecap:round;stroke-linejoin:round;stroke-miterlimit:3;stroke:#666666;stroke-opacity:1" d="M-12.2 -174.45L-11.45 -172.45" />
<path style="fill:none;stroke-width:1;stroke-linecap:round;stroke-linejoin:round;stroke-miterlimit:3;stroke:#666666;stroke-opacity:1" d="M-50.2 -153.1L-51.55 -152.9Q-55.25 -152.35 -58 -150.35Q-62.15 -147.45 -64.25 -141.45" />
<path style="fill:none;stroke-width:1;stroke-linecap:round;stroke-linejoin:round;stroke-miterlimit:3;stroke:#666666;stroke-opacity:1" d="M-46.2 -153.05L-45.7 -152.95L-45.75 -153.05L-46.2 -153.05L-50.2 -153.1L-48 -153.2" />
<path style="fill:none;stroke-width:1;stroke-linecap:round;stroke-linejoin:round;stroke-miterlimit:3;stroke:#666666;stroke-opacity:1" d="M-58 -150.35Q-60.8 -165.3 -57.15 -175.2" />
<path style="fill:none;stroke-width:1;stroke-linecap:round;stroke-linejoin:round;stroke-miterlimit:3;stroke:#666666;stroke-opacity:1" d="M-48.2 -100L-47.4 -100L-46.7 -100.05L-46.65 -100.05Q-41.85 -100.95 -37.05 -109.85Q-31.8 -119.65 -31.8 -129.6Q-31.8 -134.55 -32.75 -138.6Q-33.95 -143.55 -36.5 -147.1L-38 -148.9Q-41.25 -152.25 -45.7 -152.95" />
<path style="fill:none;stroke-width:1;stroke-linecap:round;stroke-linejoin:round;stroke-miterlimit:3;stroke:#666666;stroke-opacity:1" d="M-9.2 -140.95Q-8.7 -138.25 -10.05 -138Q-10.8 -137.85 -11.25 -138.45Q-11.75 -139.1 -12 -140.45Q-12.2 -141.55 -11.95 -142.45Q-11.7 -143.3 -11.05 -143.4Q-10.45 -143.55 -9.9 -142.75Q-9.35 -142.05 -9.2 -140.95z" />
<path style="fill:none;stroke-width:1;stroke-linecap:round;stroke-linejoin:round;stroke-miterlimit:3;stroke:#666666;stroke-opacity:1" d="M-6.8 -139Q-7.3 -137.05 -8.75 -136.65Q-10.35 -136.3 -11.9 -137.7L-12 -137.8Q-13.4 -139.25 -13.9 -141.5Q-14.45 -143.9 -13.75 -145.85Q-13 -147.75 -11.45 -148.15Q-8.25 -148.8 -7 -143.25L-6.65 -141.15Q-6.6 -139.95 -6.8 -139z" />
<path style="fill:none;stroke-width:1;stroke-linecap:round;stroke-linejoin:round;stroke-miterlimit:3;stroke:#666666;stroke-opacity:1" d="M-46.65 -100.05Q-41.4 -98.35 -36.7 -103.3Q-32.25 -108 -29.15 -116.25Q-25.4 -126.55 -27.4 -134.8L-28.7 -139.35" />
<path style="fill:none;stroke-width:1;stroke-linecap:round;stroke-linejoin:round;stroke-miterlimit:3;stroke:#666666;stroke-opacity:1" d="M-9.8 -110.25L-9.75 -110.25Q-8.3 -110.95 -6.6 -112.4" />
<path style="fill:none;stroke-width:1;stroke-linecap:round;stroke-linejoin:round;stroke-miterlimit:3;stroke:#666666;stroke-opacity:1" d="M-70.95 -18.1L-64.8 -17.9Q-61.25 -16.8 -57.35 -14.1Q-53.55 -11.55 -51.15 -8.7Q-48.6 -5.65 -48.45 -3.25L-46.8 -5.1L-42.65 -10.7Q-38.55 -16.75 -36.15 -18.9L-33.3 -20.6" />
<path style="fill:none;stroke-width:1;stroke-linecap:round;stroke-linejoin:round;stroke-miterlimit:3;stroke:#666666;stroke-opacity:1" d="M-46.8 -5.1L-46.5 -1.35Q-38.6 6.5 -19.95 9.45Q-18.65 5.35 -19.3 -1.95Q-23.5 -3.2 -26.35 -5.25" />
<path style="fill:none;stroke-width:1;stroke-linecap:round;stroke-linejoin:round;stroke-miterlimit:3;stroke:#666666;stroke-opacity:1" d="M-4.2 -34.65Q-11.3 -36.05 -18.9 -34.9L-18.85 -34.55Q-16.15 -28.75 -12.85 -25.5L-5.8 -25.2L-4.4 -27.2Q-1.95 -31.15 -1.75 -34.15" />
<path style="fill:none;stroke-width:1;stroke-linecap:round;stroke-linejoin:round;stroke-miterlimit:3;stroke:#666666;stroke-opacity:1" d="M-18.85 -34.55Q-17.7 -23.65 -18.7 -9.3L-2.45 -8.75Q-3.5 -16.8 -3 -25.05L-2.95 -26.15" />
<path style="fill:none;stroke-width:1;stroke-linecap:round;stroke-linejoin:round;stroke-miterlimit:3;stroke:#666666;stroke-opacity:1" d="M-37.05 46.75L-43.2 48.5Q-41.75 56.65 -42.1 62.1Q-39.05 62.5 -36.2 62.05Q-33.35 61.6 -30.7 60.25Q-30.1 53.5 -31.05 46.25L-37.05 46.75z" />
<path style="fill:none;stroke-width:1;stroke-linecap:round;stroke-linejoin:round;stroke-miterlimit:3;stroke:#666666;stroke-opacity:1" d="M-46.2 42.45L-32.9 39.85L-23.5 38.7Q-38.35 36.65 -46.05 29.45L-47.35 28.15L-47.4 31.1Q-47.45 36.8 -46.5 41" />
<path style="fill:none;stroke-width:1;stroke-linecap:round;stroke-linejoin:round;stroke-miterlimit:3;stroke:#666666;stroke-opacity:1" d="M-46.2 42.45L-47.85 42.85Q-49.2 43.25 -48.85 50.9L-48.85 51.2L-48.8 51.75Q-48.55 57.95 -47.85 61.35Q-47.35 63.95 -51.95 72.1L-55.65 78Q-59 82.75 -62.6 85.8" />
<path style="fill:none;stroke-width:1;stroke-linecap:round;stroke-linejoin:round;stroke-miterlimit:3;stroke:#666666;stroke-opacity:1" d="M-62.4 86.1L-62.35 86.1Q-59.65 84.25 -57.05 83.05Q-53.3 81.25 -51.95 81.7" />
<path style="fill:none;stroke-width:1;stroke-linecap:round;stroke-linejoin:round;stroke-miterlimit:3;stroke:#666666;stroke-opacity:1" d="M-51.6 80.75Q-50.75 79.8 -48.05 78.7Q-45.35 74.2 -43.35 68.65Q-43.15 68 -39.95 67.25L-35.45 66.3L-31.75 65.7L-29.05 65.25L-20.8 64.25L-19.65 64.35Q-18.75 64.8 -21.5 69.65L-22 70.55L-22.6 71.5L-22.65 71.6" />
<path style="fill:none;stroke-width:1;stroke-linecap:round;stroke-linejoin:round;stroke-miterlimit:3;stroke:#666666;stroke-opacity:1" d="M-22.15 72Q-20 73 -18.2 73.05L-18.15 73.05L-18 73.05" />
<path style="fill:none;stroke-width:1;stroke-linecap:round;stroke-linejoin:round;stroke-miterlimit:3;stroke:#666666;stroke-opacity:1" d="M-18.2 72.75Q-17.1 71.5 -14.6 66.65L-14.45 66.35L-14.45 66.3Q-12 61.55 -11.5 59.5Q-10.8 56.65 -11.7 50.2L-11.8 49.35Q-13.15 41.2 -16.1 39.35Q-17.85 38.3 -23.5 38.7" />
<path style="fill:none;stroke-width:1;stroke-linecap:round;stroke-linejoin:round;stroke-miterlimit:3;stroke:#666666;stroke-opacity:1" d="M-26.05 45.9Q-25 52.85 -25.65 59.85Q-23.3 60.2 -21.1 59.9Q-18.9 59.65 -16.85 58.75Q-16.1 51.2 -18.35 45.1Q-22.65 44.85 -26.05 45.9z" />
<path style="fill:none;stroke-width:1;stroke-linecap:round;stroke-linejoin:round;stroke-miterlimit:3;stroke:#666666;stroke-opacity:1" d="M-56.45 29.2Q-58.1 24.75 -57.4 20.1L-55.85 11.4Q-55.05 5.85 -55.55 4.05L-55.8 3.2Q-57.35 -1 -61.65 -2.5" />
<path style="fill:none;stroke-width:1;stroke-linecap:round;stroke-linejoin:round;stroke-miterlimit:3;stroke:#666666;stroke-opacity:1" d="M-55.8 3.2Q-54.55 1.6 -54.3 0.2Q-53.8 -3.15 -57 -6.2" />
<path style="fill:none;stroke-width:1;stroke-linecap:round;stroke-linejoin:round;stroke-miterlimit:3;stroke:#666666;stroke-opacity:1" d="M-46.5 -1.35Q-46 7.5 -46.85 20.15L-47.35 27.9L-47.35 28.15" />
<path style="fill:none;stroke-width:1;stroke-linecap:round;stroke-linejoin:round;stroke-miterlimit:3;stroke:#666666;stroke-opacity:1" d="M-57.9 42.05Q-54.1 37.75 -54.7 29.2L-54.75 28.65L-56.45 29.2Q-71.65 33.75 -81.45 32.85" />
<path style="fill:none;stroke-width:1;stroke-linecap:round;stroke-linejoin:round;stroke-miterlimit:3;stroke:#666666;stroke-opacity:1" d="M-60.2 42.7Q-59.25 41.85 -58.05 42.05L-57.9 42.05Q-54.65 42.75 -48.8 51.75" />
<path style="fill:none;stroke-width:1;stroke-linecap:round;stroke-linejoin:round;stroke-miterlimit:3;stroke:#666666;stroke-opacity:1" d="M-66.85 53.5L-64.9 58.75L-60.95 57.35" />
<path style="fill:none;stroke-width:1;stroke-linecap:round;stroke-linejoin:round;stroke-miterlimit:3;stroke:#666666;stroke-opacity:1" d="M-69.75 54.5L-68.8 56.9L-67.75 59.55" />
<path style="fill:none;stroke-width:1;stroke-linecap:round;stroke-linejoin:round;stroke-miterlimit:3;stroke:#666666;stroke-opacity:1" d="M-75.05 56.2L-73.15 61.55" />
<path style="fill:none;stroke-width:1;stroke-linecap:round;stroke-linejoin:round;stroke-miterlimit:3;stroke:#666666;stroke-opacity:1" d="M-72.75 55.45L-71.8 58.1L-68.8 56.9" />
<path style="fill:none;stroke-width:1;stroke-linecap:round;stroke-linejoin:round;stroke-miterlimit:3;stroke:#666666;stroke-opacity:1" d="M-79.95 59.05L-76.35 57.4" />
<path style="fill:none;stroke-width:1;stroke-linecap:round;stroke-linejoin:round;stroke-miterlimit:3;stroke:#666666;stroke-opacity:1" d="M-81.2 58.7L-84.6 60.8L-83.9 62.85L-80.85 61.7L-79.9 64.05L-83.6 66" />
<path style="fill:none;stroke-width:1;stroke-linecap:round;stroke-linejoin:round;stroke-miterlimit:3;stroke:#666666;stroke-opacity:1" d="M-78.2 58.85L-76.85 63.15" />
<path style="fill:none;stroke-width:1;stroke-linecap:round;stroke-linejoin:round;stroke-miterlimit:3;stroke:#666666;stroke-opacity:1" d="M-71.8 58.1L-70.85 60.9" />
<path style="fill:none;stroke-width:1;stroke-linecap:round;stroke-linejoin:round;stroke-miterlimit:3;stroke:#666666;stroke-opacity:1" d="M-77.75 102.6Q-79.3 97.75 -79.65 93.65L-79.75 89.95L-83.15 89.15Q-84.6 88.6 -86.05 87.1" />
<path style="fill:none;stroke-width:1;stroke-linecap:round;stroke-linejoin:round;stroke-miterlimit:3;stroke:#666666;stroke-opacity:1" d="M-62.4 86.1L-65.2 88.1Q-68.8 90.85 -71.5 93.65L-74.25 96.8L-76.55 100.2L-77.75 102.6L-78.85 105.45Q-80.95 112.3 -82.2 118.7L-82.2 118.8L-82.35 119.7L-83.1 124.4Q-83.55 128.35 -82.95 130.05L-82.5 131.3L-82.45 131.4Q-80.95 135.45 -79.55 137.8" />
<path style="fill:none;stroke-width:1;stroke-linecap:round;stroke-linejoin:round;stroke-miterlimit:3;stroke:#666666;stroke-opacity:1" d="M-79.75 89.95Q-71.6 91.4 -65.4 87.8L-62.6 85.8" />
<path style="fill:none;stroke-width:1;stroke-linecap:round;stroke-linejoin:round;stroke-miterlimit:3;stroke:#666666;stroke-opacity:1" d="M-48.05 78.7Q-45.55 77.65 -41.45 76.5Q-36.25 75 -32.7 74.75Q-34.4 68.45 -39.95 67.25" />
<path style="fill:none;stroke-width:1;stroke-linecap:round;stroke-linejoin:round;stroke-miterlimit:3;stroke:#666666;stroke-opacity:1" d="M-36.75 128.3L-36.65 128.2Q-36.1 127.35 -36.3 124.4Q-36.5 122.45 -37.05 119.55Q-38.35 112.8 -41.1 104.2Q-42.95 98.3 -44.85 93.65L-46.75 89.2Q-49.95 82.35 -51.95 81.7" />
<path style="fill:none;stroke-width:1;stroke-linecap:round;stroke-linejoin:round;stroke-miterlimit:3;stroke:#666666;stroke-opacity:1" d="M-61.4 96.3L-60.5 98.2L-59.55 100.25" />
<path style="fill:none;stroke-width:1;stroke-linecap:round;stroke-linejoin:round;stroke-miterlimit:3;stroke:#666666;stroke-opacity:1" d="M-13.85 72.6L-16.95 74.65L-17.1 74.75L-24.35 79.7L-24.7 79.95L-25 80.1L-28.2 82.35" />
<path style="fill:none;stroke-width:1;stroke-linecap:round;stroke-linejoin:round;stroke-miterlimit:3;stroke:#666666;stroke-opacity:1" d="M-12.5 87.8L-12.75 85.1L-5.2 80.75L-4.9 82.15L-10.2 86.25L-9.5 87.65L-3 85.25L-2.85 90.65" />
<path style="fill:none;stroke-width:1;stroke-linecap:round;stroke-linejoin:round;stroke-miterlimit:3;stroke:#666666;stroke-opacity:1" d="M24.95 99.05L27.6 98.3L41.55 93.65L44.1 92.7L49.9 90.35" />
<path style="fill:none;stroke-width:1;stroke-linecap:round;stroke-linejoin:round;stroke-miterlimit:3;stroke:#666666;stroke-opacity:1" d="M24.1 84.15L22.5 84.45L22.35 83.55" />
<path style="fill:none;stroke-width:1;stroke-linecap:round;stroke-linejoin:round;stroke-miterlimit:3;stroke:#666666;stroke-opacity:1" d="M17.95 80.7L18.3 85.25L16.7 85.75L16.25 82.15" />
<path style="fill:none;stroke-width:1;stroke-linecap:round;stroke-linejoin:round;stroke-miterlimit:3;stroke:#666666;stroke-opacity:1" d="M11.6 80.95L12.45 86.35L10.75 86.7L10.05 80.45" />
<path style="fill:none;stroke-width:1;stroke-linecap:round;stroke-linejoin:round;stroke-miterlimit:3;stroke:#666666;stroke-opacity:1" d="M5.35 79L3.6 80.1L4.25 88.8L2.2 89.45L1.65 80.5L-3.15 81.9L-3.25 80.1L2.2 78.2L5.85 76.9L6.3 76.75L7.5 76.3L7.95 77.4L7.5 77.7" />
<path style="fill:none;stroke-width:1;stroke-linecap:round;stroke-linejoin:round;stroke-miterlimit:3;stroke:#666666;stroke-opacity:1" d="M7.15 77.95L5.35 79" />
<path style="fill:none;stroke-width:1;stroke-linecap:round;stroke-linejoin:round;stroke-miterlimit:3;stroke:#666666;stroke-opacity:1" d="M-13.85 72.6L-12.8 71.9L-10.1 70.15L-5.9 67.45L-5.85 67.45L-5.55 67.25L-3.55 66L2.3 62.45L4.25 61.25L4.5 61.1L7.1 59.6L7.45 59.4L11.75 57Q12.15 56.7 12.65 56.5L14.75 55.35L14.8 55.3L17.5 53.9L21 52.1L22.05 51.6Q19.4 52.25 16.05 51.55L14.75 54.35L14.7 54.4L14.65 54.45L14.45 54.75L13.7 55.55L12.55 56.3Q10.3 57.2 7.2 55.1Q6.55 59.3 3.85 60.6Q1.3 61.8 -2 60.15Q-3.9 64.75 -6.4 66.6Q-8.9 68.45 -12.05 67.55Q-13 70.25 -14.5 71.65Q-16 73 -18 73.05" />
<path style="fill:none;stroke-width:1;stroke-linecap:round;stroke-linejoin:round;stroke-miterlimit:3;stroke:#666666;stroke-opacity:1" d="M9.5 75.9L9.45 75.65L10.7 75.1L10.9 76.25" />
<path style="fill:none;stroke-width:1;stroke-linecap:round;stroke-linejoin:round;stroke-miterlimit:3;stroke:#666666;stroke-opacity:1" d="M15.7 77.45L15.25 73.65L16.75 73.05" />
<path style="fill:none;stroke-width:1;stroke-linecap:round;stroke-linejoin:round;stroke-miterlimit:3;stroke:#666666;stroke-opacity:1" d="M21.2 74.25L21.2 71.65L22.55 71.2L22.55 71.25L23 74.65" />
<path style="fill:none;stroke-width:1;stroke-linecap:round;stroke-linejoin:round;stroke-miterlimit:3;stroke:#666666;stroke-opacity:1" d="M26.6 75.45L26.05 70.5L27.9 69.75L28.9 76.35" />
<path style="fill:none;stroke-width:1;stroke-linecap:round;stroke-linejoin:round;stroke-miterlimit:3;stroke:#666666;stroke-opacity:1" d="M33.7 77.15L34.15 77L36.05 76.25L36.3 77.65" />
<path style="fill:none;stroke-width:1;stroke-linecap:round;stroke-linejoin:round;stroke-miterlimit:3;stroke:#666666;stroke-opacity:1" d="M65.7 82.15L68.85 79.95L72.85 76.65" />
<path style="fill:none;stroke-width:1;stroke-linecap:round;stroke-linejoin:round;stroke-miterlimit:3;stroke:#666666;stroke-opacity:1" d="M73.1 76.45L74.95 74.55L75.4 74.05L76.3 73L78.1 70.4L79.5 67.75" />
<path style="fill:none;stroke-width:1;stroke-linecap:round;stroke-linejoin:round;stroke-miterlimit:3;stroke:#666666;stroke-opacity:1" d="M-29.05 65.25Q-24.35 66.05 -22.6 71.5" />
<path style="fill:none;stroke-width:1;stroke-linecap:round;stroke-linejoin:round;stroke-miterlimit:3;stroke:#666666;stroke-opacity:1" d="M-26.7 76.15L-26.35 76.7Q-26 77.35 -25.8 78.3L-25.8 78.4L-25.75 78.4L-25.35 78.2Q-23 76.8 -22.15 72" />
<path style="fill:none;stroke-width:1;stroke-linecap:round;stroke-linejoin:round;stroke-miterlimit:3;stroke:#666666;stroke-opacity:1" d="M-32.7 74.75L-31.65 74.7L-31.5 74.7L-31.4 74.7L-28.1 75.15Q-27.3 75.45 -26.75 76.15L-26.7 76.15Q-24.75 74.75 -22.65 71.6" />
<path style="fill:none;stroke-width:1;stroke-linecap:round;stroke-linejoin:round;stroke-miterlimit:3;stroke:#666666;stroke-opacity:1" d="M-25.8 78.4L-26.1 78.55Q-28.3 79.25 -31.55 77.65Q-31 81.9 -35.15 87.3L-33.85 86.35L-28.2 82.35" />
<path style="fill:none;stroke-width:1;stroke-linecap:round;stroke-linejoin:round;stroke-miterlimit:3;stroke:#666666;stroke-opacity:1" d="M-35.15 87.3L-35 87.65" />
<path style="fill:none;stroke-width:1;stroke-linecap:round;stroke-linejoin:round;stroke-miterlimit:3;stroke:#666666;stroke-opacity:1" d="M-34.75 88.3L-32.3 95.25" />
<path style="fill:none;stroke-width:1;stroke-linecap:round;stroke-linejoin:round;stroke-miterlimit:3;stroke:#666666;stroke-opacity:1" d="M-3.55 106.2L10.65 102.9L12.2 102.5L24.3 99.25L24.65 99.15L24.95 99.05" />
<path style="fill:none;stroke-width:1;stroke-linecap:round;stroke-linejoin:round;stroke-miterlimit:3;stroke:#666666;stroke-opacity:1" d="M-5.35 89.8L-5.2 92.1L-11.75 94.6L-11.75 95.85L-2.8 92.85L-2.8 91.35" />
<path style="fill:none;stroke-width:1;stroke-linecap:round;stroke-linejoin:round;stroke-miterlimit:3;stroke:#666666;stroke-opacity:1" d="M-12.5 87.8L-12.25 90.5L-7.95 89L-5.45 88.1L-5.35 89.8" />
<path style="fill:none;stroke-width:1;stroke-linecap:round;stroke-linejoin:round;stroke-miterlimit:3;stroke:#666666;stroke-opacity:1" d="M-86.85 89.55Q-87 91.15 -86.75 93.65L-86.5 95.8L-85.3 102.95L-82.55 118.75L-82.55 118.8L-82.35 119.7" />
<path style="fill:none;stroke-width:1;stroke-linecap:round;stroke-linejoin:round;stroke-miterlimit:3;stroke:#666666;stroke-opacity:1" d="M-85.3 102.95Q-88 104.1 -92.45 113.1Q-96.95 122.15 -96.2 124.1L-96.1 124.4Q-95.7 125.85 -94.65 130.85Q-93.8 134.75 -92.85 134.9Q-91.2 135.1 -82.5 131.3" />
<path style="fill:none;stroke-width:1;stroke-linecap:round;stroke-linejoin:round;stroke-miterlimit:3;stroke:#666666;stroke-opacity:1" d="M-8.15 109.25L-8.2 109.2Q-12.65 108 -15.15 111.85Q-16.4 111.1 -17.45 110.85L-17.55 110.85" />
<path style="fill:none;stroke-width:1;stroke-linecap:round;stroke-linejoin:round;stroke-miterlimit:3;stroke:#666666;stroke-opacity:1" d="M-17.65 111.6Q-16.35 115.45 -17.8 117.95Q-19.7 120.95 -26.6 124.4L-28.1 125.15Q-35.1 128.45 -36.7 128.3L-36.75 128.3Q-37.45 129 -40.35 130.25L-40.4 130.25" />
<path style="fill:none;stroke-width:1;stroke-linecap:round;stroke-linejoin:round;stroke-miterlimit:3;stroke:#666666;stroke-opacity:1" d="M-17.55 110.85L-17.6 110.85Q-20.2 110.3 -21.7 112.95Q-23.7 110.65 -26.6 110.75L-26.8 110.75L-32.3 95.25" />
<path style="fill:none;stroke-width:1;stroke-linecap:round;stroke-linejoin:round;stroke-miterlimit:3;stroke:#666666;stroke-opacity:1" d="M-3.55 106.2L-26.6 110.75" />
<path style="fill:none;stroke-width:1;stroke-linecap:round;stroke-linejoin:round;stroke-miterlimit:3;stroke:#666666;stroke-opacity:1" d="M-51.8 113.05Q-53.7 112.9 -54.8 115.3Q-55.75 117.2 -54.95 118.8L-54.2 119.8Q-52.2 122.05 -50 120.75Q-47.9 119.5 -48.25 117" />
<path style="fill:none;stroke-width:1;stroke-linecap:round;stroke-linejoin:round;stroke-miterlimit:3;stroke:#666666;stroke-opacity:1" d="M-61.95 101.45L-62.85 99.3L-63.75 97.2" />
<path style="fill:none;stroke-width:1;stroke-linecap:round;stroke-linejoin:round;stroke-miterlimit:3;stroke:#666666;stroke-opacity:1" d="M-66.55 99L-68.05 99.9L-66.6 103.7" />
<path style="fill:none;stroke-width:1;stroke-linecap:round;stroke-linejoin:round;stroke-miterlimit:3;stroke:#666666;stroke-opacity:1" d="M-70.3 100.35L-72.85 102.2L-72.2 103.8L-69.85 102.7L-68.9 104.55L-71.8 106.25" />
<path style="fill:none;stroke-width:1;stroke-linecap:round;stroke-linejoin:round;stroke-miterlimit:3;stroke:#666666;stroke-opacity:1" d="M-69.25 100.55L-68.05 99.9" />
<path style="fill:none;stroke-width:1;stroke-linecap:round;stroke-linejoin:round;stroke-miterlimit:3;stroke:#666666;stroke-opacity:1" d="M-63.35 119.65Q-64.9 119.75 -65.4 121.6Q-65.85 123.4 -64.55 124.4L-64.45 124.45L-61.65 124.4Q-60.35 123.4 -60.9 122.2" />
<path style="fill:none;stroke-width:1;stroke-linecap:round;stroke-linejoin:round;stroke-miterlimit:3;stroke:#666666;stroke-opacity:1" d="M-17 159.95L-17.15 160Q-26.65 162.7 -37.6 161.05" />
<path style="fill:none;stroke-width:1;stroke-linecap:round;stroke-linejoin:round;stroke-miterlimit:3;stroke:#666666;stroke-opacity:1" d="M-37.4 168.6Q-23.9 173.65 -17.75 167.5" />
<path style="fill:none;stroke-width:1;stroke-linecap:round;stroke-linejoin:round;stroke-miterlimit:3;stroke:#666666;stroke-opacity:1" d="M-60.5 98.2L-62.85 99.3" />
<path style="fill:none;stroke-width:1;stroke-linecap:round;stroke-linejoin:round;stroke-miterlimit:3;stroke:#666666;stroke-opacity:1" d="M-59.1 95.4L-57.35 99.45L-54.25 98.1" />
<path style="fill:none;stroke-width:1;stroke-linecap:round;stroke-linejoin:round;stroke-miterlimit:3;stroke:#666666;stroke-opacity:1" d="M-65.45 98.2L-63.7 102.2" />
<path style="fill:none;stroke-width:1;stroke-linecap:round;stroke-linejoin:round;stroke-miterlimit:3;stroke:#666666;stroke-opacity:1" d="M-74.55 45.9Q-80.8 46.05 -83.6 48.5" />
<path style="fill:none;stroke-width:1;stroke-linecap:round;stroke-linejoin:round;stroke-miterlimit:3;stroke:#666666;stroke-opacity:1" d="M57.75 40.15Q67.9 39.65 73.85 44.65Q77.55 47.7 79.6 52.9Q81.05 56.6 81.1 60.55" />
<path style="fill:none;stroke-width:1;stroke-linecap:round;stroke-linejoin:round;stroke-miterlimit:3;stroke:#666666;stroke-opacity:1" d="M81.1 61.25L80.95 62.7L80.95 62.8L80.95 62.9" />
<path style="fill:none;stroke-width:1;stroke-linecap:round;stroke-linejoin:round;stroke-miterlimit:3;stroke:#666666;stroke-opacity:1" d="M80.85 63.25Q80.5 65.5 79.5 67.75" />
<path style="fill:none;stroke-width:1;stroke-linecap:round;stroke-linejoin:round;stroke-miterlimit:3;stroke:#666666;stroke-opacity:1" d="M48.9 -3.85L50.65 7.55L50.8 8.75" />
<path style="fill:none;stroke-width:1;stroke-linecap:round;stroke-linejoin:round;stroke-miterlimit:3;stroke:#666666;stroke-opacity:1" d="M36.3 45.3Q40.35 43.7 44.1 42.65L44.85 42.45Q47.95 42.4 50.4 41.1L45.05 42.4" />
<path style="fill:none;stroke-width:1;stroke-linecap:round;stroke-linejoin:round;stroke-miterlimit:3;stroke:#666666;stroke-opacity:1" d="M50.4 41.1L51.9 40.05" />
<path style="fill:none;stroke-width:1;stroke-linecap:round;stroke-linejoin:round;stroke-miterlimit:3;stroke:#666666;stroke-opacity:1" d="M50.4 41.1L55.2 40.35" />
<path style="fill:none;stroke-width:1;stroke-linecap:round;stroke-linejoin:round;stroke-miterlimit:3;stroke:#666666;stroke-opacity:1" d="M14.1 49.45Q14.6 28.5 13.9 12.5L13.15 -0.5" />
<path style="fill:none;stroke-width:1;stroke-linecap:round;stroke-linejoin:round;stroke-miterlimit:3;stroke:#666666;stroke-opacity:1" d="M22.95 51.15L25.05 50.1L26.85 48.3" />
<path style="fill:none;stroke-width:1;stroke-linecap:round;stroke-linejoin:round;stroke-miterlimit:3;stroke:#666666;stroke-opacity:1" d="M22.05 51.6L22.25 51.45L22.95 51.15" />
<path style="fill:none;stroke-width:1;stroke-linecap:round;stroke-linejoin:round;stroke-miterlimit:3;stroke:#666666;stroke-opacity:1" d="M14.1 49.45L14.1 49.55L14.1 49.8" />
<path style="fill:none;stroke-width:1;stroke-linecap:round;stroke-linejoin:round;stroke-miterlimit:3;stroke:#666666;stroke-opacity:1" d="M13.85 49.55Q2.2 54.25 -11.7 50.2" />
<path style="fill:none;stroke-width:1;stroke-linecap:round;stroke-linejoin:round;stroke-miterlimit:3;stroke:#666666;stroke-opacity:1" d="M13.7 55.55L13.8 54.6L14.1 49.8" />
<path style="fill:none;stroke-width:1;stroke-linecap:round;stroke-linejoin:round;stroke-miterlimit:3;stroke:#666666;stroke-opacity:1" d="M15.7 77.45L15.9 79.25" />
<path style="fill:none;stroke-width:1;stroke-linecap:round;stroke-linejoin:round;stroke-miterlimit:3;stroke:#666666;stroke-opacity:1" d="M15.95 79.4L16.25 82.15" />
<path style="fill:none;stroke-width:1;stroke-linecap:round;stroke-linejoin:round;stroke-miterlimit:3;stroke:#666666;stroke-opacity:1" d="M18 78.3L21.2 77.05L21.2 74.25" />
<path style="fill:none;stroke-width:1;stroke-linecap:round;stroke-linejoin:round;stroke-miterlimit:3;stroke:#666666;stroke-opacity:1" d="M17.65 77.9L16.75 73.05" />
<path style="fill:none;stroke-width:1;stroke-linecap:round;stroke-linejoin:round;stroke-miterlimit:3;stroke:#666666;stroke-opacity:1" d="M18 78.3L17.75 78.4" />
<path style="fill:none;stroke-width:1;stroke-linecap:round;stroke-linejoin:round;stroke-miterlimit:3;stroke:#666666;stroke-opacity:1" d="M17.95 80.7L17.95 80.65L21.45 79L21.65 78.9L21.65 79L22.3 83L22.3 83.1" />
<path style="fill:none;stroke-width:1;stroke-linecap:round;stroke-linejoin:round;stroke-miterlimit:3;stroke:#666666;stroke-opacity:1" d="M11.6 80.95L10.9 76.25" />
<path style="fill:none;stroke-width:1;stroke-linecap:round;stroke-linejoin:round;stroke-miterlimit:3;stroke:#666666;stroke-opacity:1" d="M9.5 75.9L10.05 80.45" />
<path style="fill:none;stroke-width:1;stroke-linecap:round;stroke-linejoin:round;stroke-miterlimit:3;stroke:#666666;stroke-opacity:1" d="M54.65 88.25L59.55 85.8" />
<path style="fill:none;stroke-width:1;stroke-linecap:round;stroke-linejoin:round;stroke-miterlimit:3;stroke:#666666;stroke-opacity:1" d="M33.7 77.15L29.25 78.85L28.9 76.35" />
<path style="fill:none;stroke-width:1;stroke-linecap:round;stroke-linejoin:round;stroke-miterlimit:3;stroke:#666666;stroke-opacity:1" d="M29.9 80.95L36.45 78.5L36.3 77.65" />
<path style="fill:none;stroke-width:1;stroke-linecap:round;stroke-linejoin:round;stroke-miterlimit:3;stroke:#666666;stroke-opacity:1" d="M27.15 80.4L26.6 75.45" />
<path style="fill:none;stroke-width:1;stroke-linecap:round;stroke-linejoin:round;stroke-miterlimit:3;stroke:#666666;stroke-opacity:1" d="M23.65 79.4L24.25 84.1L24.1 84.15" />
<path style="fill:none;stroke-width:1;stroke-linecap:round;stroke-linejoin:round;stroke-miterlimit:3;stroke:#666666;stroke-opacity:1" d="M23 74.65L23.65 79.4" />
<path style="fill:none;stroke-width:1;stroke-linecap:round;stroke-linejoin:round;stroke-miterlimit:3;stroke:#666666;stroke-opacity:1" d="M27.15 80.4L27.3 81.9L29.9 80.95" />
<path style="fill:none;stroke-width:1;stroke-linecap:round;stroke-linejoin:round;stroke-miterlimit:3;stroke:#666666;stroke-opacity:1" d="M39.3 97.1L39.3 96.5" />
<path style="fill:none;stroke-width:1;stroke-linecap:round;stroke-linejoin:round;stroke-miterlimit:3;stroke:#666666;stroke-opacity:1" d="M80.95 62.9L80.85 63.25" />
<path style="fill:none;stroke-width:1;stroke-linecap:round;stroke-linejoin:round;stroke-miterlimit:3;stroke:#666666;stroke-opacity:1" d="M54.65 88.25L52.8 89.1L52.45 89.25L51.1 89.85L49.9 90.35" />
<path style="fill:none;stroke-width:1;stroke-linecap:round;stroke-linejoin:round;stroke-miterlimit:3;stroke:#666666;stroke-opacity:1" d="M73.1 76.45L72.85 76.65" />
<path style="fill:none;stroke-width:1;stroke-linecap:round;stroke-linejoin:round;stroke-miterlimit:3;stroke:#666666;stroke-opacity:1" d="M65.7 82.15L61.8 84.55" />
<path style="fill:none;stroke-width:1;stroke-linecap:round;stroke-linejoin:round;stroke-miterlimit:3;stroke:#666666;stroke-opacity:1" d="M25.05 50.1Q29.4 48.05 33.45 46.4" />
<path style="fill:none;stroke-width:1;stroke-linecap:round;stroke-linejoin:round;stroke-miterlimit:3;stroke:#666666;stroke-opacity:1" d="M24.65 99.15Q22.5 100.25 20.35 102.85Q14.2 100.15 12.3 106L11.7 105.7L11.55 105.65" />
<path style="fill:none;stroke-width:1;stroke-linecap:round;stroke-linejoin:round;stroke-miterlimit:3;stroke:#666666;stroke-opacity:1" d="M37.65 151.45L37.55 151.5Q31.25 153.45 28.1 153.9Q23.1 154.65 17.6 153.7" />
<path style="fill:none;stroke-width:1;stroke-linecap:round;stroke-linejoin:round;stroke-miterlimit:3;stroke:#666666;stroke-opacity:1" d="M19.2 162.65Q30.9 163.9 37.8 158.8" />
<path style="fill:none;stroke-width:1;stroke-linecap:round;stroke-linejoin:round;stroke-miterlimit:3;stroke:#666666;stroke-opacity:1" d="M27.6 98.3Q30.15 98.1 32.7 99.85Q34.75 94.45 39.3 97.1" />
<path style="fill:none;stroke-width:1;stroke-linecap:round;stroke-linejoin:round;stroke-miterlimit:3;stroke:#666666;stroke-opacity:1" d="M-54.3 0.2Q-52 0.45 -48.45 -3.25" />
</g>
</svg>
